<?xml version="1.0" encoding="utf-8"?>
<!-- Generator: Adobe Illustrator 21.0.0, SVG Export Plug-In . SVG Version: 6.00 Build 0)  -->
<svg version="1.1" xmlns="http://www.w3.org/2000/svg" xmlns:xlink="http://www.w3.org/1999/xlink" x="0px" y="0px"
	 viewBox="0 0 1400 1400" enable-background="new 0 0 1400 1400" xml:space="preserve">
<g id="Layer_2" display="none">
	<g display="inline">
		<path fill="none" stroke="#0E1235" stroke-width="8" stroke-miterlimit="10" d="M713.099,659.667c0,0-193.086-2.589-226.793,26.19
			c-30.421,25.973-25.91,72.214,19.535,65.342c107.59-16.269,213.611-12.843,321.353-0.888c22.469,2.493,44.93,5.062,67.423,7.33
			c19.473,1.964,34.913,2.344,43.079-18.632c7.152-18.373,1.722-38.114-14.844-49.224
			C891.177,668.544,737.06,659.184,713.099,659.667z"/>
		<path fill="none" stroke="#0E1235" stroke-width="8" stroke-miterlimit="10" d="M504.178,678.091
			c0.313-29.864,5.593-70.232,45.404-74.122c21.596-2.11,41.922,10.925,50.466,29.051c4.613,9.786,6.867,20.371,9.09,30.858"/>
		<path fill="none" stroke="#0E1235" stroke-width="8" stroke-miterlimit="10" d="M631.525,661.033c0,0,1.746-32.387,23.654-36.288
			c24.333-4.333,35.333,34.862,35.333,34.862"/>
		<g>
			<g>
				<path fill="#0E1235" d="M532.838,642.596c0.459-4.102,5.668-5.151,7.911-1.842c1.795,2.649,6.129,0.15,4.317-2.524
					c-5.162-7.618-16.22-4.641-17.228,4.365C527.481,645.789,532.484,645.763,532.838,642.596L532.838,642.596z"/>
			</g>
		</g>
		<g>
			<g>
				<path fill="#0E1235" d="M566.479,637.838c0.032-2.15,1.71-4.03,3.94-4.035c2.217-0.005,3.766,1.676,4.596,3.549
					c1.301,2.936,5.611,0.395,4.317-2.524c-1.732-3.907-5.989-6.597-10.307-5.899c-4.367,0.706-7.481,4.554-7.547,8.909
					C561.43,641.057,566.43,641.058,566.479,637.838L566.479,637.838z"/>
			</g>
		</g>
		<g>
			<g>
				<path fill="#0E1235" d="M654.012,648.579c3.217,0,3.223-5,0-5C650.795,643.579,650.79,648.579,654.012,648.579L654.012,648.579z
					"/>
			</g>
		</g>
		<g>
			<g>
				<path fill="#0E1235" d="M665.846,648.079c3.217,0,3.223-5,0-5C662.629,643.079,662.623,648.079,665.846,648.079L665.846,648.079
					z"/>
			</g>
		</g>
		<g>
			<path fill="#0E1235" d="M660.391,1007.765c-0.542,0-1.09-0.007-1.646-0.021c-20.274-0.514-29.648-12.876-33.48-20.372
				c-6.736,5.283-20.549,14.195-37.069,14.197c-3.44,0-6.994-0.387-10.629-1.271c-18.391-4.479-24.604-15.085-26.687-22.281
				c-6.516,3.732-17.199,8.047-28.497,8.344c-12.228,0.332-22.78-3.868-31.365-12.454c-10.872-10.872-13.709-24.313-8.205-38.868
				c2.107-5.572,5.059-10.255,7.42-13.48c-6.658-2.748-11.204-6.926-13.55-12.469c-3.192-7.544-1.351-15.687,0.527-20.816
				c-11.636-2.644-27.319-12.057-27.697-35.129c-0.37-22.566,16.303-33.98,29.105-38.295c-10.422-12.438-15.04-24.875-13.738-37.041
				c2.057-19.22,18.209-30.261,18.896-30.722l4.457,6.644l-2.229-3.322l2.237,3.316c-0.138,0.094-13.797,9.526-15.415,25.01
				c-1.181,11.312,4.222,23.279,16.059,35.57l5.27,5.471l-7.493,1.249c-1.2,0.206-29.587,5.367-29.151,31.989
				c0.434,26.46,24.675,28.018,25.707,28.07l6.506,0.337l-3.243,5.649c-0.055,0.098-5.948,10.649-2.419,18.931
				c1.953,4.583,6.642,7.847,13.936,9.701l6.672,1.696l-4.778,4.957c-0.977,1.02-23.79,25.324-3.218,45.896
				c6.764,6.765,15.067,10.159,24.623,10.127c14.697-0.068,27.88-8.249,29.596-9.997l7.777-8.641l-0.834,11.619
				c-0.031,0.606-0.557,15.764,21.623,21.166c23.468,5.719,44.375-14.429,44.583-14.633l4.967-4.864l1.713,6.734
				c0.205,0.774,5.377,19.406,28.224,19.984c23.185,0.608,30.347-13.175,30.64-13.761l5.26-10.514l2.259,11.51
				c0.192,0.872,2.303,8.926,14.244,9.434c11.087,0.466,12.359-8.771,12.508-10.629l1.1-13.733l6.428,12.16
				c0.341,0.627,8.87,15.822,31.62,12.897c23.548-3.019,32.796-22.203,32.887-22.396l2.883-6.15l3.98,5.504
				c0.143,0.191,3.98,5.236,10.988,6.021c6.249,0.703,13.209-2.177,20.673-8.552l3.657-3.124l2.404,4.166
				c0.423,0.719,10.782,17.847,32.485,12.932c20.933-4.744,15.859-30.527,15.634-31.623l-2.105-10.192l8.39,6.159
				c0.959,0.699,23.85,17.015,41.472-0.604c4.924-4.925,6.827-9.918,5.818-15.266c-1.985-10.523-14.825-19.552-17.928-20.909
				l-10.114-4.425l10.602-3.08c0.672-0.201,16.795-5.207,17.706-22.041c0.921-17.003-9.713-21.725-9.82-21.77l-5.745-2.442
				l4.619-4.199c0.603-0.564,15.019-14.545-5.006-37.761l-2.217-2.57l2.176-2.606c0.092-0.11,9.76-11.997,8.118-26.5
				c-1.063-9.386-6.625-18-16.531-25.604l4.871-6.347c11.729,9.001,18.329,19.48,19.619,31.146
				c1.495,13.51-4.63,24.746-7.947,29.713c16.14,20.408,10.011,35.713,5.472,42.533c4.625,3.728,11.197,11.74,10.38,26.839
				c-0.719,13.27-8.895,21.646-16.231,26.042c6.242,4.789,14.027,12.896,15.839,22.498c1.041,5.521,0.494,13.888-8.023,22.405
				c-14.555,14.553-32.89,11.319-44.7,5.642c0.203,12.415-4.299,28.622-22.578,32.765c-3.25,0.736-6.34,1.065-9.255,1.065
				c-13.984,0.002-24.029-7.564-29.292-14.024c-8.082,5.987-15.966,8.57-23.508,7.664c-5.43-0.648-9.566-3.015-12.328-5.194
				c-4.783,7.019-16.029,19.62-36.325,22.223c-17.908,2.292-28.835-4.75-34.583-10.491c-2.816,5.322-8.398,10.291-18.43,9.853
				c-9.483-0.403-15.301-4.624-18.537-8.986C687.476,1000.766,677.639,1007.765,660.391,1007.765z"/>
		</g>
		<path fill="none" stroke="#0E1235" stroke-width="8" stroke-miterlimit="10" d="M774.802,662.829l26.9-264.11
			c0.42-4.08,3.18-6.99,6.08-6.41l18.81,3.76c2.86,0.57,4.74,4.33,4.16,8.32l-37.63,260"/>
		<path fill="none" stroke="#0E1235" stroke-width="8" stroke-miterlimit="10" d="M822.392,667.399l40.55-261.09
			c0.63-4.05,3.54-6.81,6.41-6.08l18.59,4.74c2.83,0.72,4.51,4.57,3.72,8.53l-50.94,256.17"/>
		<g>
			<g>
				<g>
					<path fill="#0E1235" d="M884.71,436.248c0.977-1.219,1.893-2.487,2.758-3.788l-0.973-0.643l-0.973-0.643
						c-0.826,1.243-1.701,2.454-2.635,3.619c0,0-0.835,1.08-1.921,2.484c-1.066,1.411-2.398,3.115-3.176,4.583
						c1.552-0.595,3.359-1.943,4.689-3.212C883.819,437.386,884.71,436.248,884.71,436.248z"/>
				</g>
			</g>
		</g>
		<g>
			<g>
				<g>
					<path fill="#0E1235" d="M796.81,488.914c-1.017-0.931-2-1.898-2.955-2.892l-0.843,0.807l-0.843,0.807
						c0.99,1.031,2.009,2.033,3.063,2.998c0,0,0.966,0.9,2.348,1.865c1.375,0.972,3.178,1.978,4.682,2.33
						c-0.828-1.304-2.223-2.734-3.371-3.896C797.739,489.779,796.81,488.914,796.81,488.914z"/>
				</g>
			</g>
		</g>
		<g>
			<g>
				<g>
					<path fill="#0E1235" d="M795.607,500.734c-0.96-1.049-1.851-2.159-2.685-3.309l-0.947,0.681l-0.947,0.681
						c0.886,1.224,1.834,2.403,2.854,3.518c0,0,0.929,1.046,2.325,2.15c1.383,1.116,3.259,2.23,4.817,2.609
						c-0.888-1.335-2.305-2.835-3.422-4.1C796.473,501.702,795.607,500.734,795.607,500.734z"/>
				</g>
			</g>
		</g>
		<g>
			<g>
				<g>
					<path fill="#0E1235" d="M844.919,633.557l2.923-0.86l-0.329-1.119l-0.329-1.119l-2.923,0.86c0,0-3.592,1.057-5.248,2.76
						C841.327,634.614,844.919,633.557,844.919,633.557z"/>
				</g>
			</g>
		</g>
		<g>
			<g>
				<g>
					<path fill="#0E1235" d="M540.075,788.268c0,0,0.058,0.457,0.112,1.296c0.047,0.841,0.105,2.065-0.069,3.649
						c-0.184,1.563-0.603,3.588-1.981,5.624c-0.71,1.049-1.768,2.056-2.995,2.733c-1.235,0.691-2.674,1.18-4.308,1.2
						c-1.61,0.054-3.389-0.484-4.728-1.582c-1.336-1.103-2.083-2.627-2.345-3.992c-0.533-2.755,0.443-5.056,1.416-6.481
						c1.001-1.459,2.021-2.31,2.711-2.884c0.699-0.566,1.107-0.838,1.107-0.838s-0.16,0.482-0.447,1.346
						c-0.281,0.85-0.714,2.082-0.948,3.491c-0.112,0.704-0.168,1.445-0.085,2.146c0.07,0.709,0.271,1.42,0.575,1.986
						c0.305,0.572,0.702,0.953,1.106,1.157c0.402,0.195,0.848,0.322,1.493,0.319c0.631,0.007,1.359-0.122,2.037-0.368
						c0.691-0.243,1.306-0.556,1.855-0.993c1.198-0.959,2.178-2.291,2.952-3.525c0.777-1.237,1.382-2.35,1.828-3.105
						C539.802,788.686,540.075,788.268,540.075,788.268z"/>
				</g>
			</g>
		</g>
		<g>
			<g>
				<g>
					<path fill="#0E1235" d="M689.511,784.059c0,0,0.379,0.389,1.023,1.152c0.63,0.776,1.565,1.898,2.439,3.625
						c0.43,0.865,0.843,1.893,1.069,3.133c0.231,1.235,0.233,2.693-0.218,4.196c-0.914,3.061-3.686,5.684-7.272,6.393
						c-1.814,0.361-3.661,0.144-5.212-0.444c-1.57-0.575-2.882-1.5-3.921-2.552c-1.032-1.061-1.794-2.281-2.261-3.491
						c-0.473-1.202-0.667-2.373-0.72-3.419c-0.088-2.106,0.407-3.707,0.829-4.73c0.435-1.028,0.787-1.526,0.787-1.526
						s-0.04,0.633,0.031,1.691c0.072,1.05,0.312,2.539,0.973,4.069c0.668,1.537,1.766,3.031,3.312,4.004
						c1.528,1.008,3.434,1.481,5.068,1.183c1.707-0.308,3.315-1.347,4.137-2.66c0.883-1.343,1.051-3.24,0.9-4.912
						c-0.14-1.682-0.469-3.133-0.659-4.135C689.62,784.622,689.511,784.059,689.511,784.059z"/>
				</g>
			</g>
		</g>
		<g>
			<g>
				<g>
					<path fill="#0E1235" d="M706.416,773.313c0,0,0.559,0.367,1.501,1.155c0.933,0.793,2.26,2.02,3.586,3.888
						c1.306,1.86,2.641,4.41,3.104,7.648c0.456,3.17,0.019,7.05-2.24,10.442c-2.294,3.424-6.009,5.392-9.572,5.634
						c-1.789,0.111-3.518-0.175-5.003-0.851c-1.473-0.652-2.616-1.59-3.467-2.572c-1.712-1.981-2.28-4.084-2.332-5.482
						c-0.025-0.351-0.022-0.662,0.005-0.932c0.013-0.268,0.036-0.492,0.077-0.673c0.068-0.356,0.104-0.544,0.104-0.544
						s0.043,0.186,0.126,0.539c0.033,0.174,0.096,0.384,0.184,0.625c0.074,0.242,0.177,0.513,0.319,0.802
						c0.507,1.165,1.612,2.633,3.296,3.675c0.838,0.515,1.811,0.937,2.843,1.103c1.01,0.18,2.108,0.127,3.193-0.147
						c2.161-0.545,4.344-2.007,5.726-4.036c1.433-2.072,2.137-4.642,2.266-7.092c0.143-2.444-0.315-4.804-0.922-6.776
						c-0.611-1.977-1.357-3.579-1.901-4.682C706.733,773.927,706.416,773.313,706.416,773.313z"/>
				</g>
			</g>
		</g>
		<g>
			<g>
				<g>
					<path fill="#0E1235" d="M883.377,789.864c0,0,0.344,0.495,0.97,1.394c0.634,0.885,1.558,2.149,2.804,3.597
						c1.239,1.451,2.798,3.086,4.656,4.726c0.465,0.409,0.949,0.819,1.451,1.226c0.51,0.411,1.014,0.815,1.49,1.132
						c0.475,0.315,0.937,0.57,1.317,0.693c0.381,0.125,0.675,0.156,0.916,0.112c0.51-0.048,1.279-0.538,1.752-1.239
						c0.466-0.65,0.771-1.664,0.86-2.725c0.102-1.07,0.011-2.236-0.125-3.32c-0.145-1.083-0.366-2.096-0.624-3.016
						c-0.519-1.842-1.184-3.309-1.7-4.301c-0.518-0.995-0.859-1.537-0.859-1.537s0.573,0.299,1.511,1.016
						c0.932,0.718,2.229,1.891,3.468,3.695c0.617,0.901,1.213,1.957,1.719,3.166c0.494,1.211,0.935,2.555,1.111,4.152
						c0.164,1.583,0.067,3.45-0.891,5.338c-0.48,0.924-1.138,1.773-1.998,2.485c-0.854,0.711-1.94,1.283-3.195,1.523
						c-1.272,0.235-2.574,0.058-3.604-0.343c-1.041-0.395-1.866-0.943-2.55-1.494c-0.691-0.555-1.248-1.122-1.748-1.662
						c-0.51-0.546-0.983-1.102-1.422-1.661c-1.755-2.237-2.952-4.492-3.724-6.446c-0.785-1.951-1.153-3.604-1.355-4.738
						c-0.1-0.569-0.155-1.013-0.184-1.316C883.392,790.022,883.377,789.864,883.377,789.864z"/>
				</g>
			</g>
		</g>
		<g>
			<g>
				<g>
					<path fill="#0E1235" d="M585.401,909.668c0,0-0.025,0.161-0.071,0.467c-0.06,0.303-0.099,0.775-0.271,1.347
						c-0.277,1.168-0.88,2.846-2.091,4.711c-1.231,1.827-3.068,3.882-5.71,5.423c-2.611,1.574-5.995,2.627-9.785,2.354
						c-1.897-0.166-3.986-0.802-5.624-2.228c-1.651-1.419-2.513-3.341-2.817-5.056c-0.644-3.484,0.587-6.485,1.823-8.377
						c1.265-1.95,2.553-3.168,3.417-4.013c0.878-0.831,1.384-1.259,1.384-1.259s-0.253,0.624-0.708,1.746
						c-0.447,1.113-1.163,2.715-1.67,4.643c-0.247,0.951-0.442,2.018-0.438,3.036c-0.013,1.031,0.178,2.112,0.541,3.07
						c0.376,0.96,0.955,1.739,1.642,2.205c0.671,0.48,1.621,0.782,2.813,0.908c1.188,0.124,2.499,0.045,3.717-0.107
						c1.233-0.163,2.419-0.488,3.545-0.872c2.264-0.767,4.209-1.944,5.771-3.124c1.552-1.194,2.691-2.437,3.415-3.367
						c0.393-0.453,0.63-0.849,0.827-1.107C585.3,909.806,585.401,909.668,585.401,909.668z"/>
				</g>
			</g>
		</g>
		<g>
			<g>
				<g>
					<path fill="#0E1235" d="M852.029,917.095c0,0,1.869,0.703,4.735,2.106c1.433,0.702,3.115,1.578,4.938,2.631
						c0.912,0.526,1.859,1.097,2.828,1.711c0.983,0.622,1.97,1.303,2.691,1.638c0.767,0.359,1.074,0.341,1.348,0.299
						c0.305-0.041,0.796-0.401,1.144-0.955c0.362-0.538,0.583-1.215,0.643-1.805c0.065-0.656-0.042-1.4-0.204-2.073
						c-0.348-1.368-0.933-2.562-1.318-3.389c-0.403-0.842-0.627-1.31-0.627-1.31s0.479,0.26,1.279,0.791
						c0.789,0.546,1.94,1.323,3.072,2.757c0.557,0.723,1.093,1.627,1.42,2.786c0.322,1.224,0.323,2.608-0.123,4.008
						c-0.434,1.376-1.374,2.9-3.159,3.832c-0.876,0.453-1.963,0.68-2.951,0.625c-1.002-0.049-1.905-0.332-2.663-0.677
						c-1.527-0.723-2.465-1.541-3.349-2.254c-0.897-0.742-1.736-1.491-2.515-2.23c-1.559-1.478-2.879-2.915-3.944-4.173
						C853.143,918.897,852.029,917.095,852.029,917.095z"/>
				</g>
			</g>
		</g>
		<path fill="#0E1235" d="M478.618,814.849c0,0,16.644,17.479,34.894,19.979c0,0-20.774-15.35-26.69-22.736"/>
		<path fill="#0E1235" d="M477.21,888.273c0,0,19.302,3.306,38.802-12.194c0,0-22.288,7.531-37.394,4.265"/>
		<path fill="#0E1235" d="M625.264,987.372c0,0,15.248-13.544,10.248-37.044c0,0-3.178,23.715-18.839,33.358"/>
		<path fill="#0E1235" d="M940.044,857.122c0,0-10.281,16.456-43.531,18.456c0,0,24.625-7.25,37.988-24.56"/>
		<path fill="#0E1235" d="M836.182,980.354c0,0-9.337-13.942-3.003-35.275c0,0-0.396,24.93,16.135,36.465"/>
		<g>
			<g>
				<g>
					<path fill="#0E1235" d="M920.74,765.626l-0.459-6.703l-2.328,0.16l-2.328,0.16l0.459,6.703c0,0,0.565,8.239,3.205,12.632
						C921.305,773.865,920.74,765.626,920.74,765.626z"/>
				</g>
			</g>
		</g>
		<g>
			<g>
				<g>
					<path fill="#0E1235" d="M831.04,757.924c0.375-2.03,0.974-4.014,1.736-5.926l-2.162-0.878l-2.162-0.878
						c-0.88,2.203-1.565,4.483-1.997,6.812c0,0-0.114,0.535-0.204,1.424c-0.102,0.887-0.17,2.131-0.096,3.518
						c0.107,2.777,0.995,6.111,2.573,8.104c0.718-2.438,1.052-5.46,1.505-7.895C830.645,759.776,831.04,757.924,831.04,757.924z"/>
				</g>
			</g>
		</g>
		<g>
			<g>
				<g>
					<path fill="#0E1235" d="M522.688,753.128c-0.963-1.265-2.135-2.419-3.598-3.262c-1.439-0.862-3.194-1.376-4.978-1.361
						l0.035,2.333l0.035,2.333c1.704-0.043,3.514,1.063,4.766,2.749c0,0,0.3,0.377,0.718,1.056c0.416,0.675,0.9,1.659,1.304,2.987
						c0.858,2.584,1.13,6.338,2.023,9.135c1.406-2.527,2.401-6.387,1.984-9.924c-0.173-1.726-0.727-3.341-1.281-4.403
						C523.149,753.707,522.688,753.128,522.688,753.128z"/>
				</g>
			</g>
		</g>
		<g>
			<g>
				<g>
					<path fill="#0E1235" d="M540.243,747.82c-2.153-0.921-4.568-1.301-6.97-1.084l0.237,2.321l0.237,2.321
						c1.561-0.131,3.195,0.1,4.701,0.75c0,0,0.355,0.123,0.918,0.392c0.573,0.247,1.345,0.653,2.195,1.182
						c1.75,1.031,3.557,2.747,5.227,4.392c0.274-1.127,0.172-2.542-0.316-3.895c-0.473-1.361-1.323-2.627-2.261-3.604
						c-0.933-0.986-1.934-1.708-2.7-2.139C540.755,748.005,540.243,747.82,540.243,747.82z"/>
				</g>
			</g>
		</g>
		<g>
			<g>
				<g>
					<path fill="#0E1235" d="M647.421,742.564c-0.624-0.959-1.345-1.855-2.136-2.687l-1.683,1.616l-1.683,1.616
						c0.589,0.622,1.131,1.293,1.6,2.015c0,0,0.443,0.643,1.155,1.442c0.727,0.796,1.688,1.79,3.057,2.521
						c0.909-1.259,0.95-2.998,0.613-4.31C648.025,743.45,647.421,742.564,647.421,742.564z"/>
				</g>
			</g>
		</g>
		<g>
			<g>
				<g>
					<path fill="#0E1235" d="M789.354,751.438c1.436-0.742,3.086-1.1,4.672-1l0.151-2.328l0.151-2.328
						c-2.478-0.154-4.944,0.391-7.124,1.515c0,0-0.51,0.25-1.265,0.792c-0.747,0.542-1.736,1.418-2.536,2.603
						c-0.809,1.173-1.429,2.634-1.629,4.099c-0.22,1.46-0.013,2.901,0.522,3.96c1.221-2.031,2.702-4.139,4.224-5.421
						c0.739-0.655,1.446-1.111,1.972-1.422C789.021,751.603,789.354,751.438,789.354,751.438z"/>
				</g>
			</g>
		</g>
		<g>
			<circle fill="#0E1235" cx="617.447" cy="845.014" r="19.042"/>
			<circle fill="#0E1235" cx="807.181" cy="845.014" r="19.042"/>
		</g>
		<path fill="none" stroke="#0E1235" stroke-width="9" stroke-linecap="round" stroke-linejoin="round" stroke-miterlimit="10" d="
			M738.465,870.881c3.875,6.343,7.119,15.5-0.392,20.578c-2.937,1.986-6.677,2.58-10.187,2.081
			c-7.662-1.09-13.973-6.371-15.229-14.206c-2.746,7.071-6.209,12.341-14.104,14.032c-6.072,1.301-12.916-0.495-15.608-6.566
			c-2.481-5.596,0.526-11.223,3.522-15.919"/>
		<g>
			<g>
				<path fill="#0E1235" d="M873.512,860.579c4.504,0,4.512-7,0-7C869.008,853.579,869.001,860.579,873.512,860.579L873.512,860.579
					z"/>
			</g>
		</g>
		<g>
			<g>
				<path fill="#0E1235" d="M603.512,948.579c4.504,0,4.512-7,0-7C599.008,941.579,599.001,948.579,603.512,948.579L603.512,948.579
					z"/>
			</g>
		</g>
		<g>
			<g>
				<path fill="#0E1235" d="M594.846,963.245c4.504,0,4.512-7,0-7C590.342,956.245,590.334,963.245,594.846,963.245L594.846,963.245
					z"/>
			</g>
		</g>
		<g>
			<g>
				<path fill="#0E1235" d="M584.846,952.579c4.504,0,4.512-7,0-7C580.342,945.579,580.334,952.579,584.846,952.579L584.846,952.579
					z"/>
			</g>
		</g>
		<g>
			<g>
				<path fill="#0E1235" d="M546.846,827.912c4.504,0,4.512-7,0-7C542.342,820.912,542.334,827.912,546.846,827.912L546.846,827.912
					z"/>
			</g>
		</g>
		<g>
			<g>
				<path fill="#0E1235" d="M904.179,707.912c4.504,0,4.512-7,0-7C899.675,700.912,899.668,707.912,904.179,707.912L904.179,707.912
					z"/>
			</g>
		</g>
		<g>
			<g>
				<path fill="#0E1235" d="M893.512,717.245c4.504,0,4.512-7,0-7C889.008,710.245,889.001,717.245,893.512,717.245L893.512,717.245
					z"/>
			</g>
		</g>
		<g>
			<g>
				<path fill="#0E1235" d="M906.179,721.912c4.504,0,4.512-7,0-7C901.675,714.912,901.668,721.912,906.179,721.912L906.179,721.912
					z"/>
			</g>
		</g>
		<g>
			<g>
				<path fill="#0E1235" d="M502.179,714.579c4.504,0,4.512-7,0-7C497.675,707.579,497.668,714.579,502.179,714.579L502.179,714.579
					z"/>
			</g>
		</g>
	</g>
</g>
<g id="Layer_4">
	<path fill="#F7A524" d="M1109.874,698.614c0,104.966-85.086,190.063-190.052,190.063c-51.236,0-97.742-20.276-131.922-53.254
		c-35.847-34.565-58.142-83.079-58.142-136.809c0-104.966,85.098-190.052,190.063-190.052c43.887,0,84.304,14.878,116.476,39.872
		C1081.07,583.193,1109.874,637.535,1109.874,698.614z"/>
	<path opacity="0.5" fill="#E86A25" d="M1109.874,698.614c0,104.966-85.086,190.063-190.052,190.063
		c-51.236,0-97.742-20.276-131.922-53.254c22.907-3.255,45.974-5.772,68.371-11.499c68.858-17.623,128.916-66.953,159.581-131.082
		c21.308-44.545,28.147-95.667,20.447-144.407C1081.07,583.193,1109.874,637.535,1109.874,698.614z"/>
	<circle fill="#E86A25" cx="977.352" cy="573.264" r="7.026"/>
	<circle fill="#E86A25" cx="933.536" cy="631.359" r="18.797"/>
	<circle fill="#E86A25" cx="799.785" cy="620.778" r="14.276"/>
	
		<rect x="67.118" y="67.118" transform="matrix(-1.836970e-16 1 -1 -1.836970e-16 1400 -1.757030e-09)" fill="none" stroke="#ED6E2E" stroke-width="10" stroke-linejoin="round" stroke-miterlimit="10" width="1265.765" height="1265.765"/>
	
		<rect x="1280.667" y="1280.667" transform="matrix(-1.836970e-16 1 -1 -1.836970e-16 2613.5491 -1.756916e-09)" fill="none" stroke="#ED6E2E" stroke-width="10" stroke-linejoin="round" stroke-miterlimit="10" width="52.216" height="52.216"/>
	
		<rect x="1306.775" y="1254.559" transform="matrix(-1.836970e-16 1 -1 -1.836970e-16 2587.4412 -52.2157)" fill="none" stroke="#ED6E2E" stroke-width="10" stroke-linejoin="round" stroke-miterlimit="10" width="26.108" height="26.108"/>
	
		<rect x="1254.559" y="1306.775" transform="matrix(-1.836970e-16 1 -1 -1.836970e-16 2587.4412 52.2157)" fill="none" stroke="#ED6E2E" stroke-width="10" stroke-linejoin="round" stroke-miterlimit="10" width="26.108" height="26.108"/>
	
		<rect x="67.118" y="1280.667" transform="matrix(-1 -1.224647e-16 1.224647e-16 -1 186.4509 2613.5491)" fill="none" stroke="#ED6E2E" stroke-width="10" stroke-linejoin="round" stroke-miterlimit="10" width="52.216" height="52.216"/>
	
		<rect x="119.333" y="1306.775" transform="matrix(-1 -1.224647e-16 1.224647e-16 -1 264.7745 2639.657)" fill="none" stroke="#ED6E2E" stroke-width="10" stroke-linejoin="round" stroke-miterlimit="10" width="26.108" height="26.108"/>
	
		<rect x="67.118" y="1254.559" transform="matrix(-1 -1.224647e-16 1.224647e-16 -1 160.3431 2535.2256)" fill="none" stroke="#ED6E2E" stroke-width="10" stroke-linejoin="round" stroke-miterlimit="10" width="26.108" height="26.108"/>
	
		<rect x="67.118" y="67.118" transform="matrix(6.123234e-17 -1 1 6.123234e-17 -4.547474e-13 186.4509)" fill="none" stroke="#ED6E2E" stroke-width="10" stroke-linejoin="round" stroke-miterlimit="10" width="52.216" height="52.216"/>
	
		<rect x="67.118" y="119.333" transform="matrix(6.123234e-17 -1 1 6.123234e-17 -52.2157 212.5588)" fill="none" stroke="#ED6E2E" stroke-width="10" stroke-linejoin="round" stroke-miterlimit="10" width="26.108" height="26.108"/>
	
		<rect x="119.333" y="67.118" transform="matrix(6.123234e-17 -1 1 6.123234e-17 52.2157 212.5588)" fill="none" stroke="#ED6E2E" stroke-width="10" stroke-linejoin="round" stroke-miterlimit="10" width="26.108" height="26.108"/>
	
		<rect x="1280.667" y="67.118" fill="none" stroke="#ED6E2E" stroke-width="10" stroke-linejoin="round" stroke-miterlimit="10" width="52.216" height="52.216"/>
	
		<rect x="1254.559" y="67.118" fill="none" stroke="#ED6E2E" stroke-width="10" stroke-linejoin="round" stroke-miterlimit="10" width="26.108" height="26.108"/>
	
		<rect x="1306.775" y="119.333" fill="none" stroke="#ED6E2E" stroke-width="10" stroke-linejoin="round" stroke-miterlimit="10" width="26.108" height="26.108"/>
</g>
<g id="Layer_3">
	<path fill="#8CC63F" d="M558.634,612.388c-9.893-24.905-35.174-41.65-61.462-40.729c-13.958,0.493-25.5,4.635-34.762,12.653
		c-15.158,13.092-24.224,36.51-27.805,71.14c16.034-3.504,35.538-5.882,56.712-7.426c23.872-1.734,49.896-2.41,75.495-2.451
		C565.036,634.306,562.824,622.954,558.634,612.388z M470.697,617.741c-0.765,4.306-7.629,3.918-6.861-0.428
		c1.005-5.723,4.889-9.462,9.403-10.71c5.174-1.454,11.177,0.367,14.616,6.189c2.255,3.819-3.915,6.878-6.144,3.088
		c-1.046-1.787-2.722-2.746-4.472-2.952C474.356,612.541,471.315,614.253,470.697,617.741z M529.016,614.148
		c-0.979-2.637-2.948-5.075-5.995-5.265c-3.061-0.177-5.527,2.259-5.753,5.206c-0.344,4.414-7.206,3.986-6.861-0.428
		c0.456-5.978,5.066-10.98,11.124-11.58c5.974-0.591,11.59,3.465,13.629,8.979C536.693,615.179,530.561,618.295,529.016,614.148z"/>
	<path fill="#F4785C" d="M640.734,609.182c-19.5,2.231-27.074,25.609-29.612,36.903c25.496,0.599,48.875,1.63,67.173,2.607
		C674.045,635.072,662.51,606.682,640.734,609.182z M636.466,636.324c-4.422-0.276-3.987-7.137,0.428-6.861
		C641.317,629.739,640.881,636.599,636.466,636.324z M652.748,636.651c-4.422-0.276-3.987-7.137,0.428-6.861
		C657.598,630.066,657.163,636.927,652.748,636.651z"/>
	<path fill="#C69C6D" d="M894.528,315.248l-62.203,297.567l-10.628,50.873c-4.859-0.73-9.649-1.456-14.345-2.135l8.1-48.992
		l26.985-163.285c0.441,0.441,0.933,0.94,1.508,1.444c1.798,1.655,4.283,3.339,6.377,3.994c-1.094-1.901-2.914-4.081-4.342-5.919
		c-1.443-1.826-2.54-3.231-2.54-3.231c-0.116-0.131-0.203-0.274-0.319-0.406l2.014-12.176c0.483,0.43,1.058,0.934,1.714,1.457
		c1.811,1.449,4.194,2.989,6.223,3.598c-1.027-1.869-2.812-3.95-4.291-5.64c-1.48-1.677-2.681-2.95-2.681-2.95
		c-0.118-0.104-0.206-0.233-0.323-0.351l20.185-122.092c0.442-2.673,1.834-3.784,2.06-3.867l25.463,6.769
		C894.06,310.177,895.134,312.379,894.528,315.248z"/>
	<path fill="#ED6E2E" d="M1015.099,742.065c-3.2-5.021-7.42-9.583-12.59-13.487c-40.773-30.745-252.996-56.996-286.451-58.437
		l-0.192-0.012c-0.672-0.056-67.875-5.077-140.21-5.583c-119.677-0.83-160.767,10.809-174.17,20.717
		c-5.749,4.256-10.755,9.206-14.889,14.527c-7.704,13.295-10.185,27.881-5.717,39.511c5.603,14.636,20.871,21.623,42.98,19.669
		c67.515-5.925,137.213-6.658,211.851-1.999c71.536,4.465,147.6,13.869,230.633,28.378l18.397,3.215
		c24.065,4.216,48.948,8.579,73.453,12.602c26.673,4.379,43.684,5.303,54.829-18.757
		C1019.374,768.713,1019.877,754.473,1015.099,742.065z M422.458,713.891c-0.206-0.013-0.411-0.039-0.601-0.079
		c-1.268-0.203-2.193-0.84-2.816-1.677c-2.108-2.859-0.608-8.138,4.017-7.85C429.247,704.671,428.633,714.276,422.458,713.891z
		 M959.839,741.468c4.611,0.288,5.446,5.671,3.025,8.262c-0.768,0.82-1.862,1.358-3.28,1.352c-0.111,0.007-0.22,0-0.344-0.008
		C953.051,750.687,953.664,741.082,959.839,741.468z M975.281,729.565c4.625,0.289,5.456,5.727,2.995,8.301
		c-0.722,0.754-1.731,1.256-3.003,1.314c-0.193,0.002-0.386,0.003-0.592-0.009C968.493,738.784,969.092,729.178,975.281,729.565z
		 M976.827,748.948c4.625,0.289,5.456,5.727,2.981,8.3c-0.694,0.742-1.689,1.245-2.947,1.304c-0.208,0.015-0.414,0.015-0.634,0.002
		C970.038,758.167,970.638,748.561,976.827,748.948z"/>
	<path fill="#ED6E2E" d="M1015.099,742.065c-3.2-5.021-7.42-9.583-12.59-13.487c-3.749-2.838-8.961-5.629-15.361-8.37
		c-2.281-0.983-4.714-1.947-7.285-2.907c-68.396-25.65-234.526-45.897-263.804-47.159l-0.192-0.012
		c-0.672-0.056-67.875-5.077-140.21-5.583c-119.677-0.83-160.767,10.809-174.17,20.717c-5.749,4.256-10.755,9.206-14.889,14.527
		c-6.608,11.407-9.377,23.757-7.202,34.377c7.811,8.615,21.139,12.478,38.672,10.996c69.134-5.824,140.52-6.452,216.983-1.679
		c73.279,4.574,151.195,14.094,236.259,28.729l18.85,3.243c24.656,4.253,50.156,8.655,75.251,12.715
		c21.453,3.474,36.799,4.804,47.915-6.418C1019.388,768.26,1019.806,754.275,1015.099,742.065z M422.458,713.891
		c-0.206-0.013-0.411-0.039-0.601-0.079c-1.268-0.203-2.193-0.84-2.816-1.677c-2.108-2.859-0.608-8.138,4.017-7.85
		C429.247,704.671,428.633,714.276,422.458,713.891z M962.864,749.729c-0.768,0.82-1.862,1.358-3.28,1.352
		c-0.111,0.007-0.22,0-0.344-0.008c-6.189-0.386-5.576-9.991,0.6-9.606C964.45,741.755,965.285,747.139,962.864,749.729z
		 M970.601,736.133c-0.511-1.52-0.304-3.298,0.578-4.634c0.806-1.217,2.181-2.054,4.102-1.934c4.625,0.289,5.456,5.727,2.995,8.301
		c-0.722,0.754-1.731,1.256-3.003,1.314c-0.193,0.002-0.386,0.003-0.592-0.009C972.472,739.032,971.134,737.737,970.601,736.133z
		 M979.808,757.248c-0.694,0.742-1.689,1.245-2.947,1.304c-0.208,0.015-0.414,0.015-0.634,0.002c-6.189-0.386-5.589-9.992,0.6-9.606
		C981.451,749.236,982.283,754.675,979.808,757.248z"/>
	<path fill="#D6421F" d="M1013.325,781.754c-0.096,0.214-0.207,0.442-0.303,0.656c-11.145,24.06-28.156,23.136-54.829,18.757
		c-24.505-4.023-49.388-8.386-73.453-12.602l-18.397-3.215c-83.032-14.509-159.096-23.913-230.633-28.378
		c-74.638-4.659-144.336-3.926-211.851,1.999c-22.109,1.954-37.377-5.033-42.98-19.669c-0.641-1.652-1.126-3.363-1.484-5.135
		c7.811,8.615,21.139,12.478,38.672,10.996c69.134-5.824,140.52-6.452,216.983-1.679c73.279,4.574,151.195,14.094,236.259,28.729
		l18.85,3.243c24.656,4.253,50.156,8.655,75.251,12.715C986.863,791.646,1002.209,792.976,1013.325,781.754z"/>
	<path fill="#FFFFFF" d="M1015.099,742.065c-3.2-5.021-7.42-9.583-12.59-13.487c-40.773-30.745-252.996-56.996-286.451-58.437
		l-0.192-0.012c-0.672-0.056-67.875-5.077-140.21-5.583c-119.677-0.83-160.767,10.809-174.17,20.717
		c-5.749,4.256-10.755,9.206-14.889,14.527c4.744-8.245,11.497-16.007,19.837-22.278c13.211-9.935,53.712-21.61,171.618-20.877
		c71.25,0.438,137.466,5.398,138.124,5.453l0.192,0.012c32.961,1.41,242.014,27.463,282.142,58.168
		C1006.306,726.239,1011.886,733.737,1015.099,742.065z"/>
	<path fill="#C69C6D" d="M977.406,332.682l-7.625,28.798c-0.311,0.353-0.61,0.72-0.921,1.072c0,0-1.245,1.41-2.848,3.252
		c-1.589,1.843-3.56,4.062-4.756,6.013c2.178-0.691,4.777-2.374,6.711-4.003c0.059-0.065,0.117-0.117,0.19-0.167l-40.515,153.156
		l-28.612,108.134l-0.014-0.001c0,0-5.017,1.147-7.441,3.338c2.016,0.594,4.814,0.342,6.553,0.078l-11.252,42.555
		c-4.764-0.931-9.557-1.823-14.364-2.715l31.973-145.423l44.807-203.832c0.538-2.432,1.923-3.655,2.259-3.744l25.091,8.096
		C977.2,327.586,978.162,329.836,977.406,332.682z"/>
	<path fill="#FFFFFF" d="M1012.142,983.445c2.008-17.164-5.202-25.687-9.17-28.993c-6.632,4.725-17.704,10.398-34.652,12.881
		c-5.534,0.812-11.693,1.281-18.525,1.268c0,0,8.692-1.978,19.865-6.833c11.044-4.78,24.522-12.37,34.372-23.616
		c4.832-7.675,9.648-23.478-8.123-46.878l-2.813-3.716l3.201-3.396c0.133-0.143,14.421-15.631,13.413-35.67
		c-0.597-11.843-6.422-23.132-17.273-33.59l0.025,4.892c0,0,0.064,11.342-3.099,17.647c-3.246-6.264-3.323-17.607-3.323-17.607
		l-0.026-5.319c-3.365,0.272-6.779,0.238-10.21,0.024c-2.47-0.154-4.948-0.405-7.409-0.71c-4.033-0.5-8.055-1.164-11.983-1.809
		c-2.918-0.485-5.836-0.957-8.754-1.442c-21.719-3.629-43.591-7.46-64.821-11.182l-11.515-2.014
		c-0.512,1.359-0.942,2.738-1.292,4.149c0,0-0.708,2.518-1.479,5.818c-0.826,3.296-1.537,7.412-2.734,10.699
		c-1.998-2.866-2.933-7.526-2.847-11.336c0.023-1.914,0.225-3.609,0.439-4.822c0.2-1.214,0.397-1.945,0.397-1.945
		c0.325-1.233,0.705-2.463,1.112-3.691l-0.464-0.07c-16.34-2.852-32.402-5.508-48.229-7.97c-0.975,0.173-1.93,0.458-2.85,0.855
		c0,0-0.466,0.191-1.22,0.571c-0.74,0.381-1.753,0.938-2.825,1.78c-2.195,1.626-4.407,4.395-6.255,7.076
		c-0.65-1.501-0.815-3.495-0.388-5.48c0.413-1.986,1.39-3.95,2.588-5.487c0.24-0.316,0.505-0.588,0.757-0.876
		c-65.836-9.937-127.299-16.432-185.75-19.543c0.068,0.238,0.122,0.476,0.161,0.74c0.354,1.827,0.15,4.211-1.206,5.862
		c-1.817-1.119-3.049-2.574-3.983-3.72c-0.906-1.159-1.454-2.088-1.454-2.088c-0.223-0.4-0.489-0.774-0.74-1.162
		c-47.164-2.296-92.399-2.392-136.434-0.305c0.142,0.16,0.284,0.307,0.425,0.481c1.207,1.412,2.264,3.227,2.793,5.134
		c0.557,1.895,0.572,3.852,0.106,5.365c-2.151-2.393-4.488-4.909-6.801-6.472c-1.121-0.8-2.143-1.415-2.904-1.807
		c-0.759-0.419-1.229-0.614-1.229-0.614c-1.722-0.879-3.596-1.313-5.451-1.401c-5.516,0.317-11.035,0.675-16.529,1.062
		c0.089,0.116,0.178,0.232,0.267,0.361c0,0,0.582,0.835,1.246,2.337s1.28,3.772,1.38,6.148c0.259,4.893-1.43,10.105-3.581,13.456
		c-0.982-3.919-1.031-9.088-1.989-12.716c-0.435-1.859-1.023-3.246-1.529-4.201c-0.518-0.969-0.897-1.516-0.897-1.516
		c-0.905-1.393-2.075-2.513-3.351-3.254c-2.644,0.207-5.288,0.414-7.92,0.649c-1.952,0.154-3.89,0.308-5.83,0.476
		c-5.334,0.48-10.389,0.467-15.112-0.006c-4.15-0.383-8.043-1.136-11.682-2.217c-5.06,3.597-18.475,14.579-21.348,31.703
		c-2.589,15.433,3.797,32.308,18.992,50.187l2.399,2.836c7.988,8.64,20.775,19.853,26.58,24.844
		c1.896,1.634,3.048,2.601,3.048,2.601c-1.197-0.24-2.391-0.535-3.583-0.871c-13.43-3.773-25.553-13.043-33.4-20.2
		c-7.137,1.111-39.896,7.952-41.422,41.223c-1.245,27.006,16.733,36.27,26.628,39.312c12.211,3.449,28.25,1.846,39.194-0.019
		c7.408-1.26,12.48-2.624,12.48-2.624c-3.616,2.53-7.204,4.62-10.701,6.358c-12.411,6.155-23.782,7.801-31.783,7.963
		c-2.255,4.13-7.191,14.788-3.923,24.001c2.297,6.453,8.44,11.341,18.299,14.505l9.007,2.904l-6.983,6.383
		c-1.419,1.317-34.816,32.722-8.35,62.711c8.71,9.87,19.81,15.233,32.931,16.011c3.569,0.209,7.091,0.057,10.477-0.338
		c1.678-0.184,3.306-0.441,4.909-0.74c13.563-2.542,24.236-8.447,26.076-10.11l11.416-11.19l-2.134,15.875
		c-0.093,0.834-2.118,21.579,27.856,30.889c23.257,7.238,45.798-4.732,56.292-11.737c18.709-13.476,24.238-41.359,24.238-41.359
		c2.773,18.702-3.273,32.349-8.94,40.605c1.009,4.141,7.855,26.665,36.873,29.22c31.758,2.809,42.764-15.488,43.225-16.258
		l8.119-13.986l2.115,15.988c0.186,1.21,2.391,12.451,18.733,14.174c15.179,1.581,17.713-10.99,18.078-13.516l2.686-18.761
		l7.768,17.237c0.413,0.894,10.816,22.483,42.286,20.411c32.576-2.127,46.912-27.655,47.053-27.922l4.479-8.193l4.99,7.902
		c0.19,0.274,5.014,7.518,14.566,9.202c7.931,1.391,16.978-1.42,26.903-8.364c-2.066-8.615-3.108-21.933,2.772-38.014
		c0,0-2.684,34.176,19.012,51.415c7.035,5.371,17.543,9.829,32.114,7.474c29.128-4.712,24.379-40.537,24.171-42.052l-2.022-14.178
		l8.93,7.459l1.768,1.474l0.288,0.238c1.257,1.043,31.271,25.399,56.959,2.729c7.187-6.329,10.222-13.028,9.295-20.456
		c-1.83-14.607-18.676-28.098-22.815-30.216l-13.494-6.945l14.81-3.319C986.888,1011.956,1009.438,1006.462,1012.142,983.445z
		 M467.787,825.042c-0.395,2.138-1.131,4.875-3.199,7.556c-1.064,1.38-2.605,2.662-4.351,3.489
		c-1.747,0.841-3.765,1.391-6.017,1.277c-2.214-0.069-4.597-0.948-6.342-2.572c-1.744-1.638-2.643-3.788-2.883-5.677
		c-0.491-3.833,1.051-6.905,2.504-8.784c1.496-1.904,2.969-2.983,3.966-3.72c1.009-0.722,1.595-1.058,1.595-1.058
		s-0.261,0.645-0.733,1.814c-0.457,1.143-1.166,2.793-1.603,4.708c-0.211,0.951-0.357,1.962-0.294,2.944
		c0.036,0.967,0.249,1.972,0.613,2.766c0.377,0.809,0.879,1.364,1.424,1.687c0.533,0.295,1.139,0.512,2.017,0.567
		c0.864,0.068,1.877-0.048,2.831-0.333c0.967-0.27,1.832-0.657,2.624-1.2c1.729-1.215,3.188-2.956,4.351-4.591
		c1.177-1.635,2.109-3.106,2.777-4.097c0.669-1.005,1.075-1.559,1.075-1.559s0.043,0.636,0.054,1.781
		C468.179,821.195,468.156,822.888,467.787,825.042z M474.05,873.236c-6.203-0.387-5.589-9.992,0.6-9.606
		C480.839,864.016,480.225,873.622,474.05,873.236z M507.754,1004.436c-3.716,1.931-8.458,3.081-13.636,2.386
		c-2.579-0.395-5.393-1.439-7.521-3.542c-2.143-2.09-3.172-4.799-3.437-7.171c-0.579-4.844,1.365-8.855,3.215-11.344
		c1.91-2.567,3.785-4.131,5.037-5.21c1.279-1.064,2.015-1.61,2.015-1.61s-0.41,0.829-1.123,2.327
		c-0.713,1.498-1.839,3.632-2.69,6.238c-0.424,1.282-0.777,2.734-0.863,4.12c-0.102,1.413,0.065,2.925,0.478,4.259
		c0.439,1.35,1.168,2.47,2.061,3.173c0.878,0.716,2.156,1.209,3.778,1.489c1.623,0.267,3.427,0.269,5.114,0.168
		c1.702-0.114,3.363-0.465,4.946-0.89c3.167-0.863,5.944-2.315,8.186-3.801c2.229-1.5,3.9-3.104,4.967-4.319
		c0.588-0.597,0.937-1.112,1.234-1.452c0.283-0.341,0.432-0.524,0.432-0.524s-0.041,0.218-0.136,0.639
		c-0.108,0.406-0.203,1.048-0.485,1.816c-0.484,1.582-1.452,3.836-3.272,6.284C514.211,999.88,511.509,1002.549,507.754,1004.436z
		 M515.518,1047.572c-6.203-0.387-5.589-9.992,0.6-9.606C522.307,1038.352,521.693,1047.957,515.518,1047.572z M528.327,1063.07
		c-6.203-0.387-5.589-9.992,0.6-9.606C535.115,1053.851,534.502,1063.456,528.327,1063.07z M541.467,1043.681
		c-6.189-0.386-5.576-9.991,0.6-9.606C548.256,1034.461,547.656,1044.067,541.467,1043.681z M567.836,928.891
		c-14.436-0.901-25.411-13.337-24.51-27.773c0.9-14.423,13.336-25.397,27.773-24.496c14.423,0.9,25.397,13.336,24.497,27.759
		C594.695,918.816,582.259,929.791,567.836,928.891z M652.853,840.533c-0.542-1.687-0.716-3.31-0.695-4.755
		c0.056-2.889,0.88-5.042,1.544-6.42c0.678-1.377,1.201-2.019,1.201-2.019s-0.109,0.861-0.09,2.323
		c0.006,1.447,0.208,3.512,0.982,5.668c0.788,2.157,2.156,4.309,4.2,5.773c2.013,1.517,4.58,2.325,6.856,2.054
		c2.359-0.266,4.657-1.555,5.895-3.296c1.336-1.763,1.732-4.355,1.656-6.661c-0.048-2.317-0.363-4.335-0.538-5.723
		c-0.187-1.417-0.29-2.195-0.29-2.195s0.488,0.568,1.301,1.665c0.798,1.124,1.992,2.742,3.037,5.19
		c0.516,1.217,1.005,2.666,1.2,4.387c0.156,1.25,0.124,2.653-0.187,4.094c0.688,0.897,1.542,1.777,2.611,2.532
		c1.109,0.772,2.404,1.431,3.803,1.753c1.371,0.334,2.884,0.359,4.404,0.068c3.01-0.556,6.128-2.387,8.195-5.04
		c2.154-2.731,3.335-6.198,3.723-9.549c0.401-3.336-0.028-6.614-0.683-9.369c-0.668-2.769-1.56-5.029-2.206-6.585
		c-0.701-1.573-1.073-2.45-1.073-2.45s0.737,0.556,1.959,1.72c1.209,1.164,2.928,2.966,4.58,5.645
		c1.638,2.665,3.245,6.278,3.613,10.751c0.346,4.389-0.576,9.676-3.969,14.148c-3.449,4.496-8.709,6.882-13.629,6.905
		c-2.452-0.001-4.801-0.548-6.789-1.595c-1.962-1.018-3.445-2.405-4.542-3.824c-0.47-0.635-0.858-1.266-1.191-1.879
		c-1.877,3.368-5.471,5.982-9.805,6.565c-2.515,0.339-5.034-0.121-7.111-1.064c-2.106-0.917-3.824-2.305-5.161-3.835
		C654.333,843.973,653.395,842.234,652.853,840.533z M734.151,982.157c-5.306,3.127-11.896,4.079-18.547,2.713
		c-8.487-1.756-15.416-6.39-19.768-12.806c-4.151,4.921-9.85,8.836-18.306,10.112c-2.238,0.329-4.449,0.425-6.562,0.293
		c-9.771-0.61-17.822-6.031-21.005-14.619c-4.363-11.762,3.305-22.276,6.996-27.336c2.018-2.753,5.886-3.366,8.653-1.347
		c2.754,2.004,3.366,5.886,1.348,8.639c-4.474,6.127-7.102,11.156-5.392,15.754c2.064,5.557,8.574,7.203,14.136,6.379
		c7.259-1.09,11.409-4.895,15.854-14.522c1.178-2.544,3.899-3.986,6.653-3.511c2.754,0.461,4.858,2.728,5.126,5.5
		c0.737,7.623,6.533,13.633,14.775,15.332c3.604,0.748,7.145,0.294,9.763-1.25c6.636-3.911,3.651-13.025-0.034-19.978
		c-1.589-3.02-0.432-6.764,2.589-8.366c3.02-1.589,6.764-0.446,8.352,2.588C747.296,961.817,745.563,975.444,734.151,982.157z
		 M828.197,945.142c-14.436-0.901-25.397-13.336-24.496-27.773c0.9-14.423,13.323-25.398,27.759-24.497
		c14.436,0.901,25.397,13.336,24.497,27.759C855.055,935.067,842.633,946.043,828.197,945.142z M914.37,1036.25
		c-0.722,1.856-2.142,3.861-4.664,4.985c-1.246,0.542-2.762,0.764-4.102,0.612c-1.382-0.155-2.593-0.616-3.606-1.162
		c-2.024-1.118-3.244-2.324-4.404-3.375c-1.157-1.105-2.246-2.193-3.253-3.275c-2.014-2.165-3.702-4.254-5.062-6.074
		c-2.708-3.627-4.077-6.192-4.077-6.192s2.506,1.121,6.311,3.287c1.916,1.084,4.146,2.435,6.554,4.032
		c1.203,0.805,2.458,1.669,3.737,2.589c1.291,0.948,2.591,1.966,3.551,2.481c1.026,0.56,1.453,0.559,1.827,0.527
		c0.429-0.028,1.132-0.48,1.646-1.206c0.554-0.709,0.914-1.624,1.047-2.428c0.139-0.901,0.065-1.925-0.111-2.859
		c-0.349-1.909-1.057-3.593-1.507-4.764c-0.491-1.188-0.752-1.852-0.752-1.852s0.636,0.398,1.689,1.194
		c1.037,0.822,2.549,1.978,3.977,4.05c0.707,1.036,1.357,2.316,1.711,3.937C915.211,1032.472,915.093,1034.366,914.37,1036.25z
		 M919.518,946.048c-6.189-0.386-5.576-9.991,0.6-9.606C926.306,936.828,925.706,946.434,919.518,946.048z M953.606,875.534
		c-0.311-0.088-0.606-0.217-0.888-0.345c-1.393-0.638-2.472-1.449-3.372-2.263c-0.899-0.828-1.605-1.657-2.258-2.442
		c-0.64-0.784-1.251-1.593-1.806-2.4c-2.21-3.21-3.664-6.414-4.553-9.156c-0.917-2.744-1.269-5.052-1.46-6.621
		c-0.088-0.791-0.119-1.399-0.134-1.827c-0.015-0.414-0.016-0.635-0.016-0.635s0.424,0.715,1.211,2.004
		c0.789,1.262,1.943,3.083,3.535,5.166c1.577,2.11,3.578,4.48,5.99,6.89c0.596,0.602,1.22,1.206,1.884,1.812
		c0.665,0.606,1.317,1.198,1.948,1.678c0.618,0.466,1.227,0.862,1.739,1.059c0.524,0.212,0.919,0.278,1.253,0.23
		c0.179-0.003,0.375-0.045,0.586-0.115c0.647-0.221,1.395-0.726,1.921-1.423c0.701-0.852,1.2-2.226,1.414-3.673
		c0.229-1.46,0.206-3.073,0.12-4.566c-0.022-0.304-0.046-0.595-0.082-0.887c-0.12-1.165-0.299-2.278-0.523-3.311
		c-0.556-2.57-1.337-4.63-1.965-6.046c-0.629-1.403-1.049-2.173-1.049-2.173s0.77,0.461,1.986,1.515
		c0.745,0.639,1.641,1.521,2.56,2.681c0.627,0.769,1.274,1.664,1.884,2.694c0.774,1.288,1.493,2.779,2.09,4.484
		c0.583,1.703,1.071,3.594,1.167,5.804c0.098,2.183-0.2,4.74-1.678,7.238c-0.738,1.235-1.717,2.345-2.958,3.246
		c-1.227,0.902-2.772,1.59-4.508,1.813C956.241,876.139,954.82,875.954,953.606,875.534z"/>
	<g>
		<g>
			<g>
				<g>
					<path fill="#FFFFFF" d="M567.333,756.998c-0.006-0.327-0.5-0.643-1.397-0.946c-0.449-0.152-1-0.281-1.638-0.504
						c-0.637-0.222-1.377-0.357-2.181-0.668c-1.625-0.504-3.549-1.269-5.698-2.294c-2.129-1.086-4.46-2.503-6.838-4.365
						c-2.377-1.859-4.8-4.158-7.105-6.902c-2.321-2.742-4.409-5.945-6.362-9.588c-3.901-7.278-6.821-16.167-9.804-25.898
						l0.026-0.008l-0.002-0.007c-0.627-1.968-1.242-3.899-1.858-5.833c-0.631-1.949-1.266-3.898-1.972-5.88
						c-0.002-0.007-0.002-0.007-0.002-0.007l-0.026,0.009c-1.751-4.905-3.707-9.657-6.039-14.069
						c-2.3-4.42-5.017-8.484-8.043-12.002c-3.028-3.483-6.464-6.497-10.005-8.643c-3.537-2.168-7.122-3.644-10.505-4.53
						c-3.385-0.888-6.563-1.185-9.326-1.083c-1.385,0.116-2.661,0.191-3.818,0.464c-0.577,0.125-1.131,0.204-1.645,0.366
						c-0.51,0.163-0.995,0.318-1.454,0.466c-0.918,0.266-1.674,0.705-2.332,1.015c-0.661,0.309-1.168,0.687-1.565,1.003
						c-0.793,0.633-1.117,1.096-0.976,1.392c0.129,0.269,0.701,0.336,1.634,0.233c0.467-0.051,1.017-0.165,1.688-0.213
						c0.669-0.049,1.395-0.229,2.252-0.244c0.42-0.03,0.863-0.062,1.329-0.095c0.462-0.041,0.958-0.002,1.465-0.014
						c1.013-0.045,2.121,0.091,3.294,0.162c2.352,0.274,5,0.848,7.803,1.883c2.8,1.032,5.752,2.529,8.634,4.557
						c2.899,2.027,5.578,4.629,8.127,7.793c5.069,6.319,8.996,14.7,12.231,24.122l-0.032,0.011c0,0,0,0,0.002,0.007
						c0.674,1.892,1.299,3.778,1.922,5.672c0.605,1.92,1.209,3.837,1.824,5.79l0.002,0.007l0.032-0.01
						c3.08,9.714,6.365,19.138,10.993,27.013c2.297,3.913,4.901,7.5,7.722,10.432c2.811,2.949,5.768,5.348,8.678,7.199
						c2.909,1.855,5.768,3.153,8.356,4.006c2.615,0.797,4.923,1.217,6.823,1.299c0.939,0.1,1.793,0.005,2.512-0.018
						c0.722-0.022,1.331-0.152,1.818-0.27C566.852,757.565,567.338,757.296,567.333,756.998z"/>
				</g>
			</g>
		</g>
	</g>
	<g>
		<g>
			<g>
				<g>
					<path fill="#FFFFFF" d="M695.446,768.878c-0.009-0.327-0.505-0.642-1.398-0.942c-0.447-0.144-0.993-0.284-1.623-0.513
						c-0.63-0.216-1.359-0.378-2.147-0.705c-3.163-1.108-7.579-3.19-11.973-7.328c-2.2-2.04-4.394-4.55-6.387-7.515
						c-2.002-2.954-3.776-6.334-5.34-10.202c-1.584-3.831-2.949-8.055-4.293-12.56c-1.347-4.507-2.66-9.304-4.298-14.27l0.026-0.009
						l-0.002-0.007c-0.657-1.999-1.379-3.965-2.167-5.906c-0.387-0.973-0.754-1.954-1.161-2.922
						c-0.43-0.959-0.861-1.922-1.297-2.894c-0.003-0.007-0.003-0.007-0.003-0.007l-0.025,0.011
						c-2.235-4.782-4.688-9.297-7.401-13.406c-1.286-2.1-2.759-4.015-4.102-5.948c-0.725-0.928-1.442-1.844-2.149-2.75
						c-0.355-0.452-0.707-0.9-1.058-1.346c-0.37-0.43-0.737-0.857-1.102-1.281c-5.805-6.82-11.78-12.173-17.127-16.109
						c-5.354-3.942-10.047-6.496-13.38-8c-3.382-1.43-5.375-1.878-5.677-1.309c-0.625,1.159,6.087,5.238,15.537,13.643
						c4.703,4.217,10.008,9.608,15.202,16.229c0.327,0.411,0.657,0.825,0.989,1.242c0.313,0.431,0.629,0.864,0.946,1.301
						c0.636,0.871,1.28,1.752,1.931,2.644c1.2,1.854,2.536,3.678,3.69,5.673c2.451,3.899,4.67,8.149,6.713,12.623l-0.031,0.014
						c0,0,0,0,0.003,0.006c0.408,0.904,0.812,1.799,1.215,2.691c0.382,0.9,0.725,1.811,1.09,2.715
						c0.727,1.809,1.389,3.638,2.016,5.547l0.002,0.007l0.032-0.011c3.173,9.419,5.605,18.945,9.43,27.19
						c1.849,4.108,4.096,7.938,6.604,11.17c2.491,3.24,5.226,5.919,7.984,8.021c2.757,2.104,5.524,3.651,8.101,4.628
						c0.624,0.281,1.281,0.441,1.882,0.648c0.304,0.095,0.601,0.188,0.893,0.279c0.3,0.068,0.593,0.134,0.88,0.199
						c0.575,0.123,1.121,0.242,1.643,0.338c0.531,0.055,1.036,0.108,1.514,0.158c0.946,0.122,1.805,0.058,2.532,0.032
						c0.728-0.014,1.341-0.132,1.831-0.258C694.971,769.447,695.455,769.176,695.446,768.878z"/>
				</g>
			</g>
		</g>
	</g>
	<g>
		<g>
			<g>
				<g>
					<path fill="#FFFFFF" d="M827.338,782.314c-0.083-0.735-2.229-0.739-5.607-1.906c-1.684-0.571-3.67-1.453-5.772-2.831
						c-2.108-1.359-4.301-3.276-6.366-5.695c-1.041-1.212-1.99-2.567-2.91-4.059c-0.92-1.508-1.791-3.144-2.59-4.915
						c-1.613-3.536-2.975-7.566-4.317-11.978c-1.327-4.4-2.755-9.242-4.501-14.149c-1.728-4.918-3.703-9.971-5.94-15.087
						l0.025-0.011l-0.003-0.007c-0.907-2.062-1.835-4.068-2.793-6.064c-0.947-2-1.923-3.984-2.948-5.989
						c-0.004-0.007-0.004-0.007-0.004-0.007l-0.024,0.012c-5.109-9.934-10.725-18.863-16.254-26.575
						c-2.757-3.844-5.502-7.449-8.393-10.652c-2.886-3.196-5.922-5.946-9.001-8.058c-6.191-4.296-12.351-5.727-16.47-5.696
						c-4.174,0.029-6.253,1.156-6.14,1.737c0.093,0.642,2.231,0.656,5.766,1.504c3.508,0.839,8.503,2.754,13.491,6.919
						c2.507,2.075,5.011,4.683,7.482,7.764c2.468,3.079,4.933,6.637,7.482,10.487c5.081,7.675,10.332,16.421,15.193,26.073
						l-0.03,0.015c0,0,0,0,0.004,0.007c0.992,1.939,1.945,3.853,2.868,5.784c0.919,1.934,1.807,3.879,2.684,5.872l0.003,0.007
						l0.031-0.014c2.206,4.931,4.187,9.791,5.96,14.515c1.795,4.724,3.285,9.293,4.824,13.787c1.545,4.472,3.212,8.774,5.254,12.635
						c1.013,1.932,2.131,3.745,3.322,5.411c1.203,1.671,2.49,3.217,3.843,4.532c2.702,2.644,5.54,4.607,8.26,5.863
						c2.711,1.275,5.253,1.886,7.333,2.062c1.036,0.119,1.971,0.054,2.76,0.022c0.796-0.106,1.457-0.208,1.979-0.358
						C826.88,782.93,827.375,782.61,827.338,782.314z"/>
				</g>
			</g>
		</g>
	</g>
	<g>
		<g>
			<g>
				<g>
					<path fill="#FFFFFF" d="M934.548,804.559c0.907-1.171-5.076-5.93-11.014-16.513c-3.008-5.246-5.874-11.967-8.328-19.803
						c-2.47-7.826-4.381-16.844-6.513-26.564l0.027-0.006l-0.002-0.007c-0.452-1.962-0.896-3.888-1.341-5.817
						c-0.454-1.935-0.918-3.869-1.422-5.841c-0.002-0.007-0.002-0.007-0.002-0.007l-0.026,0.007
						c-2.529-9.756-5.732-18.978-10.11-26.701c-4.341-7.69-9.531-13.853-14.715-18.024c-5.11-4.274-10.122-6.481-13.606-7.495
						c-0.886-0.236-1.668-0.435-2.355-0.565c-0.701-0.092-1.297-0.144-1.783-0.154c-0.973-0.02-1.51,0.125-1.598,0.441
						c-0.08,0.288,0.297,0.705,1.067,1.23c0.385,0.263,0.868,0.552,1.443,0.866c0.561,0.352,1.204,0.755,1.933,1.176
						c2.871,1.762,6.97,4.363,11.165,8.65c4.261,4.183,8.58,10.026,12.256,17.208c3.681,7.16,6.496,15.805,8.856,25.274
						l-0.033,0.008c0,0,0,0,0.002,0.007c0.487,1.908,0.95,3.792,1.403,5.686c0.433,1.908,0.866,3.813,1.307,5.753l0.002,0.007
						l0.033-0.007c2.213,9.646,4.388,18.92,7.342,27.104c2.928,8.167,6.468,15.211,10.279,20.553
						c3.723,5.402,7.661,9.037,10.556,11.174c0.739,0.524,1.397,0.979,1.988,1.342c0.612,0.34,1.14,0.606,1.583,0.796
						C933.826,804.719,934.367,804.797,934.548,804.559z"/>
				</g>
			</g>
		</g>
	</g>
	<path fill="#FFFFFF" d="M497.172,571.659c0,0,63.226,8.492,62.002,77.749l14.758,1.84c0,0-2.018-80.366-76.423-85.01"/>
	<path fill="#73A02D" d="M491.317,648.027c-21.174,1.544-40.678,3.922-56.712,7.426c3.581-34.63,12.647-58.049,27.805-71.14
		c-0.133,1.466-0.06,2.944,0.222,4.395c1.296,6.831,6.373,12.218,10.607,17.896c1.512,2.037,2.925,4.123,4,6.325
		c0.98,1.962,1.691,4.032,1.994,6.241c0.649,4.835-0.826,9.702-0.993,14.582c-0.181,4.879,1.548,10.511,6.107,12.298
		c1.667,0.655,3.525,0.688,5.256,1.21C490.197,647.433,490.787,647.691,491.317,648.027z"/>
	
		<ellipse transform="matrix(0.0623 -0.9981 0.9981 0.0623 -125.6259 1037.8313)" fill="#1E8220" cx="489.502" cy="585.771" rx="1.891" ry="1.891"/>
	
		<ellipse transform="matrix(0.0623 -0.9981 0.9981 0.0623 -150.1994 1105.9497)" fill="#1E8220" cx="513.467" cy="632.908" rx="4.253" ry="4.253"/>
	
		<ellipse transform="matrix(0.0623 -0.9981 0.9981 0.0623 -104.9695 1098.0063)" fill="#1E8220" cx="531.854" cy="604.866" rx="4.102" ry="4.102"/>
	
		<ellipse transform="matrix(0.0623 -0.9981 0.9981 0.0623 -191.1933 1043.7603)" fill="#1E8220" cx="459.874" cy="623.63" rx="6.531" ry="6.531"/>
	<path fill="#FFFFFF" d="M641.736,605.203c7.401,5.108,14.94,10.346,20.322,17.55c7.203,9.641,9.853,21.834,12.322,33.612
		c1.915,0.034,3.864,0.064,5.705-0.466c1.841-0.53,3.591-1.713,4.33-3.48c0.82-1.96,0.272-4.197-0.317-6.239
		c-2.756-9.556-6.311-19.097-12.524-26.863c-6.213-7.766-15.478-13.595-25.423-13.649"/>
	<path fill="#CCCCCC" d="M968.396,813.831c2.461,0.305,4.938,0.556,7.409,0.71c3.431,0.214,6.845,0.248,10.21-0.024l0.026,5.319
		c0,0,0.077,11.343,3.323,17.607c3.163-6.305,3.099-17.647,3.099-17.647l-0.025-4.892c10.85,10.458,16.676,21.746,17.273,33.59
		c1.009,20.038-13.28,35.526-13.413,35.67l-3.201,3.396l2.813,3.716c17.771,23.399,12.955,39.203,8.123,46.878
		c-9.849,11.247-23.328,18.836-34.372,23.616c0.985-1.881,2.43-3.623,3.993-5.041c3.477-3.172,7.708-5.635,10.349-9.535
		c5.796-8.551,1.733-20.267-3.84-28.977c-5.587-8.711-12.809-17.262-13.239-27.593c-0.402-9.889,5.564-18.733,8.819-28.063
		C981.391,846.423,978.475,827.602,968.396,813.831z"/>
	<path fill="#CCCCCC" d="M985.952,1012.173l-14.81,3.319l13.494,6.945c4.138,2.118,20.985,15.609,22.815,30.216
		c0.928,7.428-2.108,14.127-9.295,20.456c-25.689,22.67-55.702-1.686-56.959-2.729l-0.288-0.238l-1.768-1.474
		c10.367-0.111,20.717-1.724,30.635-4.797c3.105-0.963,6.35-2.193,8.303-4.786c4.581-6.079-0.71-14.675-6.565-19.531
		c-4.703-3.889-9.99-7.25-13.48-12.248c-3.477-4.997-4.601-12.369-0.556-16.924c4.504-5.064,12.664-4.252,18.6-7.532
		c7.762-4.282,9.617-16.344,3.529-22.772c-3.62-3.808-9.452-5.935-10.97-10.962c-0.184-0.59-0.284-1.189-0.316-1.783
		c16.948-2.483,28.02-8.156,34.652-12.881c3.968,3.306,11.178,11.829,9.17,28.993
		C1009.438,1006.462,986.888,1011.956,985.952,1012.173z"/>
	<path fill="#CCCCCC" d="M931.09,1067.37c0,0-0.515,58.118-62.067,43.714c0,0,32.829,22.523,59.054,4.968
		C954.301,1098.498,931.09,1067.37,931.09,1067.37z"/>
	<path fill="#CCCCCC" d="M375.93,939.34c-9.894-3.042-27.872-12.306-26.628-39.312c1.526-33.271,34.285-40.112,41.422-41.223
		c7.846,7.157,19.969,16.428,33.4,20.2c-0.25,0.701-0.568,1.383-0.954,2.034c-6.712,11.525-27.461,9.348-32.152,21.826
		c-3.386,9.005,4.564,18.029,12.054,24.062c4.393,3.553,9.164,7.681,12.052,12.393C404.179,941.186,388.14,942.789,375.93,939.34z"
		/>
	<path fill="#CCCCCC" d="M395.679,849.595c-15.195-17.879-21.581-34.754-18.992-50.187c2.873-17.123,16.288-28.106,21.348-31.703
		c3.638,1.081,7.531,1.834,11.682,2.217c-15.381,22.625-15.075,55.018,1.121,77.161c3.796,5.183,8.354,9.848,11.36,15.532
		c2.366,4.473,3.614,9.855,2.46,14.66c-5.805-4.991-18.592-16.204-26.58-24.844L395.679,849.595z"/>
	<path fill="#CCCCCC" d="M436.578,1077.195c-3.386,0.395-6.908,0.547-10.477,0.338c-13.121-0.778-24.221-6.141-32.931-16.011
		c-26.466-29.99,6.932-61.395,8.35-62.711l6.983-6.383l-9.007-2.904c-9.859-3.164-16.001-8.052-18.299-14.505
		c-3.268-9.214,1.667-19.871,3.923-24.001c8-0.162,19.372-1.808,31.783-7.963c0.81,2.255,1.088,4.642,0.656,7.149
		c-1.39,7.917-9.885,14.027-8.854,21.999c1.074,8.181,11.253,11.723,15.196,18.968c3.907,7.146,0.826,16.128-3.61,22.96
		c-4.449,6.831-10.318,13.008-12.515,20.847c-2.464,8.801,0.249,18.517,5.745,25.817c5.496,7.3,13.484,12.4,21.902,15.928
		C435.812,1076.885,436.187,1077.047,436.578,1077.195z"/>
	<path fill="#CCCCCC" d="M412.522,765.571c7.269,2.469,13.927,6.716,19.23,12.267c3.819,3.997,8.104,9.133,13.56,8.237
		c3.272-0.537,5.715-3.168,8.36-5.168c5.552-4.197,12.935-5.876,19.756-4.494c3.51,0.711,6.979,2.196,10.535,1.771
		c5.596-0.669,9.464-5.701,12.919-10.153c3.455-4.452,8.078-9.128,13.689-8.608c-27.65-2.48-55.665-0.85-82.84,4.821"/>
	<path fill="#CCCCCC" d="M590.15,760.421c3.773,3.208,6.909,7.083,10.291,10.702c3.381,3.619,7.114,7.058,11.64,9.068
		c4.526,2.01,9.992,2.414,14.34,0.041c4.077-2.225,6.571-6.439,9.401-10.122c2.83-3.683,6.75-7.229,11.39-7.04
		c-15.596-3.349-31.557-4.998-47.509-4.91"/>
	<path fill="#CCCCCC" d="M786.442,776.831c10.145,4.522,12.54,19.111,22.599,23.82c6.851,3.208,14.839,0.737,22.388,0.253
		c8.849-0.568,17.862,1.797,25.293,6.635c5.106,3.324,10.177,7.994,16.248,7.48c4.938-0.418,8.81-4.183,12.791-7.133
		c7.148-5.297,15.885-8.42,24.771-8.856c-33.048-4.608-66.096-9.216-99.144-13.825"/>
	<path fill="#CCCCCC" d="M555.774,937.251c-1.753-0.631-3.5-1.404-5.361-1.495c-1.861-0.092-3.916,0.688-4.692,2.381
		c-0.688,1.501-0.182,3.337,0.849,4.625c1.032,1.288,2.506,2.135,3.968,2.901c4.74,2.484,9.985,4.49,15.316,4.014
		c3.835-0.342,13.388-4.381,8.486-9.343C571.403,937.359,560.251,938.863,555.774,937.251z"/>
	<path fill="#CCCCCC" d="M824.501,959.433c-1.907-0.079-4.07-0.178-5.43,1.16c-1.562,1.536-1.139,4.326,0.362,5.921
		s3.734,2.254,5.884,2.674c4.539,0.886,29.544,1.57,26.207-7.572C848.516,953.373,830.075,959.664,824.501,959.433z"/>
	
		<ellipse transform="matrix(0.0623 -0.9981 0.9981 0.0623 -197.0057 1775.0273)" fill="#F4785C" cx="846.134" cy="992.357" rx="7.59" ry="20.844"/>
	
		<ellipse transform="matrix(0.0623 -0.9981 0.9981 0.0623 -448.9218 1456.9287)" fill="#F4785C" cx="550.89" cy="967.372" rx="7.59" ry="20.844"/>
	<g>
		<g>
			<g>
				<path fill="#CCCCCC" d="M993.99,912.33c0,0-0.511,0.104-1.439,0.293c-0.93,0.193-2.292,0.4-3.997,0.575
					c-3.402,0.342-8.228,0.406-13.506-0.587c-2.633-0.501-5.111-1.206-7.322-1.979c-2.199-0.814-4.149-1.645-5.728-2.475
					c-0.8-0.389-1.5-0.794-2.116-1.144c-0.619-0.343-1.14-0.662-1.559-0.936c-0.837-0.542-1.304-0.843-1.304-0.843
					s0.527,0.165,1.473,0.462c0.934,0.313,2.299,0.725,3.964,1.208c1.661,0.498,3.65,1.002,5.834,1.545
					c2.196,0.512,4.597,1.032,7.12,1.519c5.045,0.955,9.65,1.572,13.043,1.898c1.693,0.162,3.079,0.288,4.038,0.344
					C993.455,912.287,993.99,912.33,993.99,912.33z"/>
			</g>
		</g>
	</g>
	<g>
		<g>
			<g>
				<path fill="#CCCCCC" d="M901.19,877.999c0,0,0.378,0.426,0.977,1.28c0.593,0.855,1.399,2.155,2.131,3.922
					c0.365,0.883,0.709,1.881,0.989,2.986c0.141,0.552,0.265,1.131,0.367,1.735c0.098,0.598,0.197,1.214,0.224,1.977
					c0.016,0.749-0.013,1.584-0.319,2.559c-0.286,0.95-0.984,2.12-2.105,2.827c-0.545,0.357-1.175,0.612-1.787,0.738
					c-0.61,0.124-1.194,0.14-1.733,0.099c-1.073-0.093-1.972-0.389-2.784-0.742c-5.813-2.816-9.127-7.499-10.765-11.095
					c-0.812-1.812-1.243-3.354-1.457-4.43c-0.126-0.531-0.17-0.96-0.218-1.242c-0.04-0.284-0.061-0.434-0.061-0.434
					s0.374,0.482,1.046,1.348c0.659,0.85,1.661,2.016,2.927,3.302c1.269,1.287,2.846,2.665,4.637,3.993
					c0.897,0.665,1.862,1.301,2.863,1.924c0.502,0.312,1.02,0.608,1.545,0.906c0.521,0.275,1.103,0.61,1.533,0.803
					c0.454,0.207,0.884,0.353,1.169,0.409c0.307,0.065,0.366,0.043,0.376,0.097c0.021,0.028,0.087,0.101,0.242-0.096
					c0.143-0.192,0.296-0.568,0.388-1.014c0.102-0.43,0.151-0.963,0.204-1.499c0.047-0.526,0.09-1.043,0.113-1.546
					c0.054-1.007,0.065-1.964,0.046-2.851c-0.036-1.773-0.19-3.264-0.321-4.309C901.271,878.586,901.19,877.999,901.19,877.999z"/>
			</g>
		</g>
	</g>
	<g>
		<g>
			<g>
				<path fill="#CCCCCC" d="M599.901,814.17c0,0,0.255,0.571,0.789,1.555c0.534,0.989,1.391,2.353,2.535,4.078
					c1.119,1.754,2.586,3.813,3.718,6.784c0.525,1.498,0.922,3.149,0.97,4.966c0.059,1.802-0.205,3.81-1.168,5.764
					c-0.96,1.949-2.666,3.594-4.597,4.408c-1.921,0.833-3.884,0.97-5.596,0.746c-1.726-0.217-3.255-0.775-4.566-1.497
					c-1.284-0.717-2.317-1.546-3.175-2.351c-1.705-1.624-2.756-3.11-3.485-4.122c-0.715-1.021-1.081-1.602-1.081-1.602
					s0.606,0.35,1.664,1.006c1.061,0.643,2.574,1.627,4.449,2.543c0.934,0.457,1.967,0.871,3.051,1.169
					c1.06,0.277,2.213,0.419,3.351,0.358c1.136-0.055,2.239-0.337,3.121-0.822c0.444-0.244,0.822-0.538,1.158-0.9
					c0.343-0.352,0.643-0.748,0.881-1.227c1.003-1.889,1.112-4.655,0.737-7.045c-0.389-2.415-1.242-4.853-1.787-6.919
					c-0.579-2.08-0.885-3.841-0.962-5.04C599.83,814.818,599.901,814.17,599.901,814.17z"/>
			</g>
		</g>
	</g>
	<g>
		<g>
			<g>
				<path fill="#CCCCCC" d="M792.905,1030.019c0,0-0.251,0.448-0.634,1.274c-0.385,0.829-0.86,2.043-1.378,3.622
					c-0.537,1.571-1.093,3.528-2.11,5.769c-1.031,2.195-2.553,4.834-5.514,6.673c-1.436,0.877-3.07,1.434-4.772,1.55
					c-1.698,0.13-3.459-0.267-4.875-1.12c-2.821-1.716-3.965-4.65-3.826-6.955c0.143-2.318,1.227-3.82,2.039-4.635
					c0.414-0.417,0.792-0.67,1.041-0.839c0.261-0.151,0.398-0.231,0.398-0.231s-0.082,0.136-0.238,0.395
					c-0.139,0.266-0.346,0.643-0.513,1.147c-0.347,0.982-0.56,2.501-0.068,3.951c0.452,1.415,1.733,2.711,3.19,3.148
					c1.39,0.411,3.073,0.076,4.769-0.919c1.616-0.926,3.086-2.568,4.383-4.258c1.305-1.699,2.511-3.455,3.689-4.828
					c1.165-1.387,2.284-2.375,3.101-2.948C792.409,1030.237,792.905,1030.019,792.905,1030.019z"/>
			</g>
		</g>
	</g>
	<g>
		<g>
			<g>
				<path fill="#CCCCCC" d="M625.948,1040.483c0,0,0.4,0.426,1.044,1.284c0.635,0.862,1.53,2.161,2.308,4.023
					c0.753,1.855,1.433,4.317,1.1,7.267c-0.172,1.448-0.579,2.969-1.34,4.444c-0.748,1.474-1.879,2.902-3.389,4.014
					c-1.534,1.12-3.415,1.766-5.168,1.872c-1.77,0.128-3.509-0.206-5.013-0.947c-1.508-0.716-2.754-1.93-3.488-3.201
					c-0.737-1.274-1.044-2.572-1.147-3.685c-0.167-2.245,0.27-3.865,0.565-4.954c0.316-1.087,0.554-1.657,0.554-1.657
					s0.099,0.618,0.277,1.727c0.193,1.081,0.482,2.683,1.206,4.285c0.358,0.797,0.873,1.546,1.493,2.138
					c0.648,0.579,1.355,0.969,2.219,1.167c1.689,0.417,3.797,0.065,5.282-1.006c1.611-1.107,2.814-2.97,3.505-4.902
					c0.687-1.915,0.844-3.998,0.79-5.79c-0.059-1.802-0.307-3.336-0.489-4.403C626.058,1041.081,625.948,1040.483,625.948,1040.483z
					"/>
			</g>
		</g>
	</g>
	<g>
		<g>
			<g>
				<path fill="#CCCCCC" d="M476.745,963.483c0,0-0.381,0.389-1.131,1.081c-0.781,0.631-1.956,1.569-3.641,2.366
					c-1.669,0.815-3.827,1.544-6.345,1.823c-2.511,0.296-5.384,0.09-8.245-0.843c-0.722-0.207-1.399-0.534-2.078-0.808
					c-0.652-0.347-1.317-0.64-1.913-1.044c-1.178-0.731-2.428-1.591-3.441-3.004c-0.495-0.704-0.908-1.585-1.041-2.532
					c-0.143-0.949,0.01-1.914,0.336-2.67c0.659-1.54,1.757-2.404,2.794-2.962c1.096-0.562,2.066-0.687,2.885-0.742
					c0.818-0.044,1.48,0.024,2.008,0.088c1.051,0.142,1.596,0.274,1.596,0.274s-0.549,0.2-1.533,0.558
					c-0.94,0.362-2.458,0.908-3.444,2.019c-0.477,0.545-0.83,1.277-0.834,1.875c0.017,0.612,0.259,0.846,0.735,1.263
					c0.503,0.411,1.316,0.876,2.357,1.335c0.981,0.476,2.032,0.875,3.121,1.248c4.356,1.48,8.758,1.854,12.142,1.613
					c1.697-0.09,3.095-0.384,4.105-0.566C476.186,963.615,476.745,963.483,476.745,963.483z"/>
			</g>
		</g>
	</g>
	<g>
		<g>
			<g>
				<path fill="#CCCCCC" d="M776.836,871.93c0,0-3.25-2.036-5.109-5.766c-1.859-3.73-1.624-7.741-1.624-7.741
					s4.515,1.584,6.374,5.314C778.336,867.466,776.836,871.93,776.836,871.93z"/>
			</g>
		</g>
	</g>
	<g>
		<g>
			<g>
				<path fill="#CCCCCC" d="M508.694,821.971c0,0,4.14-5.704,10.965-10.949c6.825-5.245,13.751-8.045,13.751-8.045
					s-3.588,6.962-10.413,12.208C516.172,820.429,508.694,821.971,508.694,821.971z"/>
			</g>
		</g>
	</g>
	<g>
		<g>
			<g>
				<path fill="#CCCCCC" d="M503.762,898.525c0,0-1.292-3.119-0.464-6.482c0.828-3.364,3.462-5.698,3.462-5.698
					s2.556,3.566,1.728,6.93C507.66,896.638,503.762,898.525,503.762,898.525z"/>
			</g>
		</g>
	</g>
	<g>
		<g>
			<g>
				<path fill="#CCCCCC" d="M747.025,910.081c0,0-3.897-1.802-6.838-5.645c-2.941-3.843-3.812-8.272-3.812-8.272
					s5.069,1.138,8.01,4.982C747.326,904.988,747.025,910.081,747.025,910.081z"/>
			</g>
		</g>
	</g>
	<g>
		<g>
			<g>
				<path fill="#CCCCCC" d="M923.634,990.657c0,0-3.826-3.249-6.413-8.51c-2.587-5.262-2.955-10.544-2.955-10.544
					s5.122,2.862,7.709,8.123C924.562,984.987,923.634,990.657,923.634,990.657z"/>
			</g>
		</g>
	</g>
	<g>
		<g>
			<g>
				<path fill="#CCCCCC" d="M898.093,848.719c0,0-3.657-1.43-6.309-4.82c-2.651-3.39-3.293-7.457-3.293-7.457
					s4.809,0.737,7.461,4.128C898.604,843.96,898.093,848.719,898.093,848.719z"/>
			</g>
		</g>
	</g>
	<g>
		<g>
			<g>
				<path fill="#CCCCCC" d="M832.463,1073.005c0,0-0.827-0.815-1.805-2.351c-0.973-1.529-2.074-3.817-2.525-6.556
					c-0.454-2.739-0.158-5.329,0.278-7.158c0.432-1.837,0.961-2.94,0.961-2.94s0.807,1.124,1.703,2.805
					c0.894,1.692,1.906,3.894,2.31,6.362c0.405,2.468,0.144,4.846-0.177,6.703C832.884,1071.715,832.463,1073.005,832.463,1073.005z
					"/>
			</g>
		</g>
	</g>
	<g>
		<g>
			<g>
				<path fill="#CCCCCC" d="M737.256,1085.572c0,0-2.19-0.845-2.474-2.385c-0.284-1.539,1.445-3.19,1.445-3.19
					s3.513,0.662,3.797,2.201C740.308,1083.738,737.256,1085.572,737.256,1085.572z"/>
			</g>
		</g>
	</g>
	<g>
		<g>
			<g>
				<path fill="#CCCCCC" d="M609.83,997.878c0,0-1.144-3.98-0.118-8.484c1.026-4.503,3.835-7.825,3.835-7.825
					s2.405,4.449,1.379,8.953C613.9,995.025,609.83,997.878,609.83,997.878z"/>
			</g>
		</g>
	</g>
	<g>
		<g>
			<g>
				<path fill="#CCCCCC" d="M742.982,817.305c0,0-2.417-1.875-2.997-4.764c-0.58-2.889,0.895-5.699,0.895-5.699
					s3.747,1.722,4.327,4.612C745.788,814.343,742.982,817.305,742.982,817.305z"/>
			</g>
		</g>
	</g>
	<g>
		<g>
			<g>
				<path fill="#CCCCCC" d="M636.397,880.978c0,0-2.531-1.38-3.324-3.902c-0.794-2.522,0.451-5.232,0.451-5.232
					s3.834,1.076,4.627,3.598C638.944,877.965,636.397,880.978,636.397,880.978z"/>
			</g>
		</g>
	</g>
	<g>
		<g>
			<g>
				<path fill="#CCCCCC" d="M399.103,810.839c-3.848-2.398-7.371-5.293-10.548-8.51l-1.672,1.627l-1.672,1.627
					c3.441,3.488,7.251,6.613,11.403,9.203c0,0,0.938,0.629,2.569,1.496c1.614,0.893,3.935,2.002,6.627,2.99
					c2.688,0.996,5.761,1.84,8.796,2.28c3.031,0.456,6.006,0.524,8.455,0.242c-2.314-0.877-5.036-1.795-7.771-2.852
					c-2.738-1.041-5.48-2.236-7.884-3.428c-2.408-1.184-4.494-2.336-5.957-3.227C399.97,811.422,399.103,810.839,399.103,810.839z"
					/>
			</g>
		</g>
	</g>
	<g>
		<g>
			<g>
				<path fill="#CCCCCC" d="M391.497,899.278c-2.973-1.343-5.773-3.048-8.375-5.001l-1.414,1.856l-1.414,1.856
					c2.883,2.166,5.979,4.047,9.259,5.531c0,0,0.746,0.365,2.022,0.834c1.267,0.487,3.07,1.06,5.134,1.499
					c4.116,0.945,9.329,0.993,12.832-0.155c-3.486-1.193-8.087-2.37-11.711-3.772c-1.816-0.672-3.404-1.322-4.528-1.829
					C392.171,899.609,391.497,899.278,391.497,899.278z"/>
			</g>
		</g>
	</g>
	<g>
		<g>
			<g>
				<path fill="#CCCCCC" d="M410.712,1042.637c-5.885,0.751-11.871,0.478-17.673-0.625l-0.459,2.288l-0.459,2.288
					c6.308,1.205,12.791,1.491,19.148,0.683c0,0,0.366-0.046,1.032-0.129c0.669-0.063,1.622-0.268,2.809-0.49
					c2.373-0.443,5.632-1.303,9.13-2.66c3.502-1.34,7.226-3.231,10.501-5.539c3.291-2.282,6.125-4.94,8.137-7.413
					c-2.778,1.591-6.026,3.453-9.488,5.077c-3.448,1.648-7.114,3.027-10.481,4.014c-3.362,1-6.414,1.661-8.628,2.002
					c-1.107,0.17-1.992,0.347-2.613,0.394C411.051,1042.598,410.712,1042.637,410.712,1042.637z"/>
			</g>
		</g>
	</g>
	<g>
		<g>
			<g>
				<path fill="#CCCCCC" d="M947.154,1017.237l12.144,2.851l0.533-2.272l0.533-2.272l-12.144-2.851c0,0-14.927-3.505-23.708-3.17
					C932.227,1013.732,947.154,1017.237,947.154,1017.237z"/>
			</g>
		</g>
	</g>
	<path fill="#AA7E52" d="M828.55,613.489c1.277-0.154,2.545-0.378,3.775-0.674l-10.628,50.873c-4.859-0.73-9.649-1.456-14.345-2.135
		l8.1-48.992C819.724,613.641,824.137,614.013,828.55,613.489z"/>
	<path fill="#AA7E52" d="M927.642,520.803l-28.612,108.134l-0.014-0.001c0,0-5.017,1.147-7.441,3.338
		c2.016,0.594,4.814,0.342,6.553,0.078l-11.252,42.555c-4.764-0.931-9.557-1.823-14.364-2.715l31.973-145.423
		c0.859-0.511,1.742-0.98,2.651-1.419C913.585,522.212,920.527,520.896,927.642,520.803z"/>
	<ellipse opacity="0.7" fill="#CCCCCC" cx="698.474" cy="1225.041" rx="204.209" ry="31.902"/>
	<path fill="#F7A524" d="M420.632,544.969l-6.942-4.278c-1.107-0.682-1.996-1.668-2.56-2.84l-3.537-7.347
		c-2.332-4.845-9.099-5.195-11.919-0.618l-4.278,6.942c-0.682,1.107-1.668,1.996-2.84,2.56l-7.347,3.537
		c-4.845,2.332-5.195,9.099-0.618,11.919l6.942,4.278c1.107,0.682,1.996,1.668,2.56,2.84l3.537,7.347
		c2.332,4.845,9.099,5.195,11.919,0.618l4.278-6.942c0.682-1.107,1.668-1.996,2.84-2.56l7.347-3.537
		C424.858,554.556,425.209,547.79,420.632,544.969z"/>
	<path fill="#F7A524" d="M824.592,329.113l-4.945-3.047c-0.789-0.486-1.422-1.188-1.824-2.023l-2.519-5.233
		c-1.661-3.451-6.48-3.7-8.489-0.44l-3.047,4.945c-0.486,0.789-1.188,1.422-2.023,1.824l-5.233,2.519
		c-3.45,1.661-3.7,6.48-0.44,8.489l4.945,3.047c0.789,0.486,1.422,1.188,1.824,2.023l2.519,5.233c1.661,3.45,6.48,3.7,8.489,0.44
		l3.047-4.945c0.486-0.789,1.188-1.422,2.023-1.824l5.233-2.52C827.603,335.941,827.852,331.122,824.592,329.113z"/>
	<path fill="#ED6E2E" d="M1051.479,1112.939l-8.944-3.568c-1.427-0.569-2.661-1.536-3.555-2.785l-5.606-7.829
		c-3.697-5.163-11.639-4.197-13.992,1.7l-3.568,8.944c-0.569,1.427-1.536,2.661-2.784,3.555l-7.83,5.606
		c-5.162,3.697-4.197,11.639,1.7,13.991l8.944,3.568c1.427,0.569,2.661,1.536,3.555,2.784l5.606,7.83
		c3.697,5.162,11.639,4.197,13.991-1.7l3.568-8.944c0.569-1.427,1.536-2.661,2.784-3.555l7.83-5.606
		C1058.341,1123.234,1057.376,1115.291,1051.479,1112.939z"/>
</g>
<g id="Layer_2_copy">
	<g>
		<path fill="#30021D" d="M463.833,617.307c-0.764,4.351,6.104,4.744,6.861,0.428c0.981-5.59,8.219-6.584,11.013-1.85
			c2.236,3.789,8.398,0.731,6.141-3.093C481.418,601.896,465.987,605.033,463.833,617.307z"/>
		<path fill="#30021D" d="M521.524,602.081c-6.054,0.595-10.656,5.609-11.119,11.579c-0.342,4.413,6.519,4.843,6.861,0.428
			c0.229-2.948,2.692-5.383,5.753-5.2c3.043,0.183,5.024,2.623,6.003,5.263c1.534,4.14,7.666,1.022,6.141-3.093
			C533.121,605.549,527.509,601.492,521.524,602.081z"/>
		<path fill="#30021D" d="M636.895,629.463c-4.415-0.276-4.85,6.585-0.428,6.861C640.881,636.599,641.317,629.739,636.895,629.463z"
			/>
		<path fill="#30021D" d="M653.176,629.79c-4.415-0.276-4.851,6.585-0.428,6.861C657.163,636.927,657.598,630.066,653.176,629.79z"
			/>
		<path fill="#30021D" d="M1011.116,947.002c6.813-8.971,16.534-29.448-3.865-58.836c4.978-6.532,14.345-21.426,13.451-40.093
			c-0.653-13.653-6.629-26.46-17.748-38.177c7.701-4.046,14.602-11.104,20.049-22.868c12.653-27.329,5.499-57.669-17.803-75.498
			c-16.797-12.851-59.628-24.716-107.523-34.471l90.361-341.562c2.205-8.314-1.311-16.515-8.002-18.668l-25.107-8.098
			c-2.953-0.95-6.135-0.577-8.965,1.047c-3.661,2.103-6.361,6.04-7.409,10.801l-76.878,349.672
			c-9.76-1.718-19.511-3.342-29.099-4.863l72.724-347.893c1.762-8.415-2.179-16.416-8.968-18.217l-25.49-6.771
			c-2.991-0.792-6.147-0.259-8.886,1.508c-3.549,2.29-6.044,6.366-6.846,11.186l-58.655,354.803
			c-37.381-5.217-67.992-8.402-79.534-8.894c-2.161-0.164-11.986-0.89-26.955-1.766c-3.682-13.478-17.717-54.844-50.484-51.091
			c-28.098,3.214-37.108,35.046-39.583,47.6c-7.208-0.128-14.543-0.217-21.946-0.257c-1.914-12.445-4.266-25.107-9.1-37.275
			c-11.576-29.142-41.216-48.74-72.069-47.654c-62.403,2.189-71.19,68.775-73.544,97.632c-9.912,2.854-17.92,6.293-23.412,10.419
			c-26,19.534-38.292,50.875-29.227,74.521c3.19,8.323,8.678,14.853,16.037,19.417c-7.443,6.386-17.923,18.049-20.782,34.807
			c-2.828,16.583,2.442,34.045,15.679,52.006c-17.938,4.824-41.796,19.059-43.221,50.058c-1.457,31.694,19.258,45.954,34.999,50.579
			c-3.016,6.879-6.241,17.895-2.507,28.521c2.745,7.807,8.625,13.93,17.527,18.271c-3.517,4.224-7.969,10.397-11.337,17.863
			c-8.8,19.503-6.058,38.19,7.93,54.04c11.046,12.518,25.167,19.185,41.975,19.777c15.528,0.56,30.558-4.445,39.82-9.009
			c2.241,10.054,9.859,25.139,34.713,32.862c4.913,1.526,9.757,2.361,14.478,2.655c22.671,1.412,42.389-9.634,52.085-16.307
			c4.617,10.615,16.422,28.382,44.199,30.824c0.763,0.067,1.514,0.123,2.258,0.169c23.669,1.477,37.767-7.285,45.08-14.191
			c4.067,6.264,11.689,12.554,24.668,13.919c13.729,1.461,21.814-4.879,26.134-11.942c7.395,8.371,21.787,18.97,46.558,17.359
			c28.074-1.833,44.586-18.162,51.751-27.384c3.603,3.228,9.077,6.829,16.473,8.184c10.272,1.89,21.312-0.98,32.916-8.504
			c6.669,9.316,19.805,20.559,38.995,21.754c4,0.25,8.268,0.063,12.791-0.669c25.439-4.119,33.005-25.974,33.79-43.028
			c15.721,8.803,40.604,14.811,61.824-3.913c12.418-10.959,13.885-22.394,12.929-30.059c-1.663-13.333-11.652-25.124-19.808-32.23
			c10.445-5.405,22.382-16.199,24.505-34.346C1025.476,964.072,1017.143,952.513,1011.116,947.002z M949.297,322.942
			c0.537-2.44,1.922-3.656,2.258-3.742l25.087,8.09c0.557,0.297,1.516,2.552,0.763,5.39l-7.619,28.8
			c-0.311,0.358-0.612,0.724-0.932,1.075c0,0-1.239,1.41-2.849,3.244c-1.584,1.846-3.557,4.069-4.751,6.017
			c2.181-0.683,4.776-2.378,6.71-4.007c0.066-0.055,0.125-0.107,0.19-0.162l-69.123,261.284l-0.015,0.003
			c0,0-5.02,1.142-7.438,3.337c2.016,0.601,4.81,0.341,6.548,0.08l-11.258,42.556c-4.759-0.925-9.552-1.827-14.359-2.709
			L949.297,322.942z M842.442,449.275c0.429,0.445,0.927,0.939,1.497,1.45c1.802,1.649,4.281,3.34,6.387,3.993
			c-1.105-1.908-2.92-4.088-4.345-5.919c-1.44-1.827-2.546-3.231-2.546-3.231c-0.108-0.134-0.206-0.277-0.313-0.413l2.013-12.179
			c0.476,0.433,1.056,0.937,1.713,1.46c1.803,1.451,4.192,2.987,6.225,3.599c-1.025-1.86-2.817-3.942-4.292-5.635
			c-1.483-1.682-2.683-2.949-2.683-2.949c-0.111-0.115-0.211-0.24-0.321-0.356l20.184-122.094c0.445-2.668,1.833-3.78,2.056-3.863
			l25.469,6.763c0.572,0.271,1.647,2.479,1.047,5.341l-72.84,348.451c-4.849-0.741-9.64-1.455-14.345-2.138L842.442,449.275z
			 M640.734,609.182c21.776-2.5,33.311,25.89,37.56,39.51c-18.298-0.977-41.677-2.009-67.173-2.607
			C613.66,634.791,621.234,611.413,640.734,609.182z M497.172,571.659c26.291-0.922,51.569,15.823,61.46,40.723
			c4.198,10.566,6.407,21.918,8.181,33.192c-48.32,0.073-98.095,2.425-132.206,9.877
			C440.378,599.656,460.378,572.951,497.172,571.659z M380.874,739.302c-7.225-18.848,3.765-45.412,25.564-61.79
			c13.212-9.927,53.709-21.607,171.609-20.881c71.262,0.439,137.476,5.403,138.136,5.455l0.092,0.007l0.093,0.004
			c32.963,1.411,242.013,27.465,282.149,58.17c19.412,14.851,25.104,39.244,14.504,62.14
			c-11.143,24.068-28.148,23.142-54.829,18.762c-24.504-4.025-49.387-8.387-73.451-12.604l-18.39-3.22
			c-83.039-14.498-159.102-23.905-230.645-28.37c-74.629-4.658-144.335-3.936-211.842,2.002
			C401.756,760.925,386.483,753.937,380.874,739.302z M1012.136,983.445c-2.692,23.023-25.246,28.511-26.185,28.73l-14.812,3.319
			l13.5,6.938c4.141,2.128,20.988,15.618,22.811,30.229c0.926,7.425-2.113,14.114-9.292,20.45
			c-25.691,22.667-55.706-1.682-56.962-2.724l-10.985-9.171l2.016,14.167c0.216,1.523,4.969,37.339-24.162,42.056
			c-14.577,2.358-25.078-2.106-32.111-7.469c-21.697-17.245-19.019-51.422-19.019-51.422c-5.885,16.077-4.839,29.395-2.777,38.011
			c-9.92,6.944-18.964,9.764-26.895,8.367c-9.549-1.676-14.384-8.928-14.563-9.203l-4.991-7.894l-4.483,8.193
			c-0.141,0.258-14.475,25.792-47.048,27.917c-31.47,2.065-41.872-19.518-42.286-20.407l-7.779-17.238l-2.685,18.752
			c-0.363,2.536-2.899,15.103-18.075,13.514c-16.343-1.72-18.549-12.952-18.738-14.166l-2.114-15.988l-8.118,13.977
			c-0.452,0.779-11.461,19.08-43.225,16.259c-29.021-2.55-35.861-25.078-36.876-29.212c5.68-8.262,11.725-21.91,8.95-40.61
			c0,0-5.532,27.878-24.237,41.356c-10.497,7.005-33.04,18.976-56.298,11.747c-29.974-9.313-27.954-30.068-27.86-30.898l2.14-15.873
			l-11.412,11.191c-2.505,2.252-21.296,12.349-41.47,11.184c-13.116-0.774-24.219-6.144-32.922-16.006
			c-26.468-29.991,6.919-61.39,8.347-62.705l6.982-6.393l-9.011-2.899c-9.85-3.17-16.005-8.05-18.292-14.506
			c-3.266-9.22,1.661-19.876,3.914-24.005c10.273-0.215,26.056-2.849,42.493-14.319c0,0-31.229,8.425-51.679,2.65
			c-9.898-3.044-27.865-12.305-26.624-39.313c1.53-33.278,34.281-40.123,41.421-41.222c8.536,7.789,22.134,18.077,36.984,21.064
			c0,0-19.029-15.988-29.631-27.444l-2.405-2.83c-15.191-17.88-21.58-34.765-18.99-50.187c2.876-17.126,16.287-28.106,21.352-31.703
			c7.762,2.315,16.774,3.104,26.792,2.224c4.573-0.402,9.16-0.774,13.755-1.128c1.273,0.738,2.445,1.865,3.346,3.251
			c0,0,0.379,0.543,0.895,1.511c0.513,0.963,1.093,2.353,1.534,4.21c0.956,3.619,1.008,8.794,1.993,12.709
			c2.146-3.347,3.841-8.559,3.572-13.448c-0.09-2.383-0.711-4.648-1.381-6.152c-0.66-1.507-1.243-2.341-1.243-2.341
			c-0.082-0.123-0.176-0.238-0.261-0.36c5.493-0.387,11.002-0.742,16.53-1.059c1.853,0.086,3.725,0.524,5.444,1.397
			c0,0,0.477,0.199,1.226,0.616c0.765,0.388,1.79,1.011,2.911,1.811c2.314,1.565,4.646,4.075,6.797,6.475
			c0.472-1.523,0.453-3.474-0.1-5.371c-0.532-1.908-1.591-3.718-2.794-5.139c-0.14-0.168-0.284-0.313-0.427-0.471
			c44.026-2.086,89.264-1.998,136.433,0.3c0.256,0.382,0.511,0.765,0.737,1.167c0,0,0.553,0.921,1.461,2.077
			c0.93,1.155,2.163,2.601,3.979,3.721c1.355-1.649,1.56-4.032,1.211-5.862c-0.045-0.259-0.1-0.502-0.159-0.736
			c58.448,3.114,119.907,9.603,185.742,19.549c-0.255,0.277-0.51,0.56-0.751,0.873c-1.21,1.54-2.186,3.493-2.587,5.486
			c-0.426,1.985-0.266,3.98,0.378,5.479c1.85-2.682,4.062-5.448,6.26-7.077c1.07-0.836,2.08-1.401,2.828-1.783
			c0.751-0.373,1.223-0.571,1.223-0.571c0.908-0.4,1.872-0.673,2.85-0.848c15.818,2.458,31.882,5.108,48.226,7.961l0.463,0.081
			c-0.414,1.217-0.795,2.444-1.107,3.69c0,0-0.202,0.724-0.403,1.937c-0.216,1.208-0.415,2.91-0.433,4.82
			c-0.091,3.82,0.842,8.471,2.837,11.341c1.195-3.284,1.912-7.403,2.741-10.705c0.774-3.3,1.475-5.808,1.475-5.808
			c0.352-1.409,0.786-2.795,1.286-4.157l11.525,2.017c24.092,4.223,49.006,8.589,73.567,12.623
			c6.333,1.041,12.887,2.117,19.391,2.523c3.433,0.214,6.851,0.24,10.215-0.024l0.032,5.309c0,0,0.069,11.354,3.316,17.609
			c3.17-6.294,3.101-17.648,3.101-17.648l-0.03-4.884c10.86,10.462,16.679,21.743,17.277,33.589
			c1.01,20.043-13.275,35.526-13.41,35.67l-3.209,3.39l2.822,3.717c17.77,23.405,12.956,39.206,8.114,46.883
			c-19.82,22.606-54.228,30.445-54.228,30.445c27.756,0.063,44.376-7.88,53.174-14.15
			C1006.941,957.763,1014.144,966.278,1012.136,983.445z"/>
		<path fill="#30021D" d="M468.148,818.256c0,0-0.41,0.55-1.079,1.557c-0.676,0.998-1.602,2.473-2.774,4.104
			c-1.168,1.627-2.626,3.372-4.353,4.585c-0.791,0.553-1.661,0.93-2.63,1.204c-0.951,0.28-1.961,0.395-2.827,0.331
			c-0.885-0.052-1.487-0.264-2.022-0.566c-0.536-0.315-1.049-0.871-1.419-1.683c-0.369-0.802-0.584-1.796-0.62-2.774
			c-0.054-0.97,0.086-1.981,0.3-2.938c0.442-1.914,1.142-3.567,1.6-4.709c0.467-1.161,0.728-1.809,0.728-1.809
			s-0.583,0.339-1.591,1.055c-0.995,0.729-2.468,1.809-3.967,3.726c-1.457,1.872-2.993,4.947-2.498,8.773
			c0.242,1.895,1.137,4.05,2.876,5.679c1.743,1.621,4.138,2.512,6.353,2.576c2.243,0.112,4.26-0.436,6.015-1.278
			c1.742-0.824,3.28-2.115,4.344-3.494c2.065-2.676,2.814-5.418,3.2-7.547c0.373-2.158,0.399-3.844,0.407-5.001
			C468.189,818.889,468.148,818.256,468.148,818.256z"/>
		<path fill="#30021D" d="M667.931,850.412c4.326-0.579,7.928-3.192,9.796-6.569c0.336,0.623,0.725,1.254,1.203,1.882
			c1.084,1.42,2.572,2.806,4.538,3.826c1.98,1.055,4.328,1.595,6.793,1.597c4.911-0.028,10.177-2.409,13.618-6.912
			c3.39-4.461,4.322-9.747,3.968-14.137c-0.358-4.483-1.972-8.097-3.605-10.761c-1.66-2.676-3.375-4.474-4.588-5.642
			c-1.224-1.162-1.96-1.713-1.96-1.713s0.382,0.869,1.073,2.439c0.652,1.56,1.538,3.822,2.208,6.588
			c0.665,2.758,1.09,6.036,0.685,9.377c-0.386,3.351-1.573,6.817-3.717,9.538c-2.07,2.666-5.191,4.486-8.203,5.048
			c-1.513,0.283-3.024,0.263-4.394-0.071c-1.402-0.316-2.7-0.979-3.806-1.757c-1.065-0.754-1.927-1.632-2.614-2.522
			c0.312-1.45,0.343-2.852,0.189-4.1c-0.204-1.721-0.683-3.167-1.199-4.391c-1.052-2.444-2.239-4.064-3.036-5.183
			c-0.818-1.102-1.305-1.668-1.305-1.668s0.101,0.781,0.283,2.189c0.174,1.392,0.502,3.411,0.55,5.731
			c0.065,2.307-0.329,4.896-1.656,6.664c-1.24,1.731-3.536,3.019-5.905,3.296c-2.268,0.268-4.842-0.544-6.853-2.058
			c-2.038-1.469-3.417-3.613-4.202-5.779c-0.776-2.156-0.978-4.22-0.986-5.667c-0.007-1.458,0.102-2.323,0.102-2.323
			s-0.525,0.654-1.21,2.027c-0.667,1.369-1.483,3.523-1.543,6.42c-0.017,1.439,0.149,3.064,0.695,4.753
			c0.537,1.7,1.479,3.44,2.804,4.984c1.336,1.533,3.057,2.915,5.163,3.838C662.895,850.297,665.411,850.752,667.931,850.412z"/>
		<path fill="#30021D" d="M957.64,875.968c1.742-0.222,3.283-0.915,4.515-1.817c1.241-0.904,2.217-2.013,2.955-3.24
			c1.476-2.509,1.769-5.062,1.68-7.249c-0.104-2.207-0.594-4.089-1.168-5.793c-0.592-1.703-1.319-3.204-2.088-4.492
			c-1.547-2.582-3.225-4.303-4.443-5.367c-1.226-1.064-1.986-1.524-1.986-1.524s0.422,0.773,1.048,2.182
			c0.624,1.406,1.41,3.476,1.965,6.048c0.275,1.286,0.492,2.694,0.598,4.193c0.093,1.499,0.119,3.107-0.113,4.566
			c-0.212,1.449-0.718,2.814-1.413,3.666c-0.709,0.92-1.807,1.527-2.511,1.549c-0.333,0.04-0.734-0.028-1.247-0.232
			c-0.512-0.201-1.124-0.59-1.748-1.063c-0.626-0.476-1.283-1.074-1.948-1.682c-0.654-0.602-1.282-1.206-1.886-1.807
			c-2.409-2.41-4.408-4.786-5.984-6.884c-1.585-2.094-2.745-3.908-3.54-5.176c-0.781-1.287-1.211-1.996-1.211-1.996
			s0.007,0.219,0.021,0.635c0.014,0.418,0.051,1.032,0.14,1.821c0.18,1.574,0.543,3.873,1.453,6.618
			c0.892,2.747,2.341,5.943,4.558,9.164c0.554,0.804,1.156,1.608,1.809,2.401c0.64,0.784,1.356,1.61,2.257,2.431
			c0.892,0.815,1.977,1.637,3.372,2.269C954.103,875.827,955.875,876.182,957.64,875.968z"/>
		<path fill="#30021D" d="M519.324,991.193c0.285-0.77,0.379-1.414,0.487-1.825c0.091-0.417,0.138-0.635,0.138-0.635
			s-0.15,0.181-0.434,0.526c-0.293,0.337-0.652,0.86-1.23,1.448c-1.073,1.215-2.742,2.822-4.975,4.328
			c-2.244,1.485-5.014,2.934-8.186,3.793c-1.578,0.43-3.234,0.775-4.94,0.893c-1.685,0.104-3.49,0.101-5.11-0.171
			c-1.624-0.275-2.902-0.771-3.782-1.487c-0.902-0.698-1.63-1.817-2.064-3.166c-0.416-1.346-0.585-2.846-0.479-4.259
			c0.082-1.398,0.441-2.845,0.862-4.129c0.861-2.603,1.982-4.739,2.69-6.228c0.72-1.501,1.121-2.336,1.121-2.336
			s-0.731,0.544-2.007,1.609c-1.258,1.085-3.13,2.647-5.033,5.214c-1.858,2.49-3.805,6.503-3.219,11.339
			c0.27,2.379,1.288,5.091,3.432,7.179c2.126,2.097,4.938,3.149,7.527,3.539c5.177,0.7,9.912-0.455,13.63-2.392
			c3.757-1.889,6.454-4.552,8.3-6.953C517.873,995.022,518.844,992.772,519.324,991.193z"/>
		<path fill="#30021D" d="M913.166,1026.816c-1.43-2.065-2.944-3.23-3.979-4.047c-1.053-0.796-1.687-1.195-1.687-1.195
			s0.268,0.663,0.749,1.852c0.457,1.168,1.158,2.857,1.518,4.764c0.164,0.937,0.247,1.967,0.102,2.862
			c-0.133,0.804-0.494,1.714-1.037,2.422c-0.524,0.731-1.229,1.182-1.651,1.213c-0.38,0.034-0.802,0.032-1.825-0.526
			c-0.96-0.522-2.257-1.541-3.552-2.479c-1.278-0.927-2.529-1.79-3.735-2.591c-2.412-1.601-4.645-2.948-6.551-4.033
			c-3.812-2.171-6.318-3.296-6.318-3.296s1.374,2.568,4.083,6.204c1.354,1.818,3.042,3.903,5.055,6.065
			c1.006,1.081,2.094,2.18,3.261,3.275c1.152,1.055,2.369,2.257,4.402,3.38c1.011,0.538,2.226,1.004,3.597,1.156
			c1.351,0.16,2.863-0.059,4.103-0.605c2.53-1.126,3.95-3.138,4.664-4.988c0.733-1.883,0.849-3.782,0.513-5.489
			C914.527,1029.142,913.869,1027.855,913.166,1026.816z"/>
		
			<ellipse transform="matrix(0.0623 -0.9981 0.9981 0.0623 -367.0131 1414.8724)" fill="#30021D" cx="569.463" cy="902.754" rx="26.182" ry="26.182"/>
		
			<ellipse transform="matrix(0.0623 -0.9981 0.9981 0.0623 -139.0857 1689.973)" fill="#30021D" cx="829.83" cy="919.005" rx="26.182" ry="26.181"/>
		<path fill="#30021D" d="M730.427,943.146c-3.022,1.597-4.177,5.34-2.58,8.362c3.677,6.959,6.668,16.076,0.032,19.983
			c-2.616,1.54-6.168,2.002-9.769,1.255c-8.236-1.701-14.037-7.721-14.775-15.337c-0.27-2.78-2.37-5.036-5.124-5.502
			c-2.753-0.47-5.479,0.968-6.651,3.505c-4.452,9.636-8.601,13.437-15.857,14.523c-5.555,0.83-12.078-0.818-14.139-6.38
			c-1.704-4.596,0.924-9.618,5.394-15.747c2.013-2.76,1.408-6.631-1.353-8.645c-2.76-2.013-6.63-1.407-8.645,1.353
			c-3.688,5.056-11.361,15.575-6.999,27.34c3.184,8.59,11.233,14.005,21.003,14.615c2.12,0.132,4.321,0.038,6.571-0.299
			c8.45-1.266,14.154-5.184,18.306-10.106c4.345,6.407,11.281,11.046,19.765,12.797c6.653,1.377,13.244,0.416,18.55-2.71
			c11.405-6.716,13.136-20.334,4.631-36.428C737.189,942.704,733.443,941.55,730.427,943.146z"/>
		<path fill="#30021D" d="M920.121,936.44c-6.181-0.386-6.791,9.219-0.6,9.606C925.702,946.432,926.312,936.827,920.121,936.44z"/>
		<path fill="#30021D" d="M542.07,1034.073c-6.181-0.386-6.791,9.219-0.6,9.606C547.652,1044.065,548.262,1034.46,542.07,1034.073z"
			/>
		<path fill="#30021D" d="M528.921,1053.458c-6.181-0.386-6.791,9.219-0.6,9.606
			C534.502,1063.449,535.112,1053.844,528.921,1053.458z"/>
		<path fill="#30021D" d="M516.112,1037.964c-6.181-0.386-6.791,9.219-0.6,9.606C521.693,1047.955,522.303,1038.35,516.112,1037.964
			z"/>
		<path fill="#30021D" d="M474.644,863.633c-6.181-0.386-6.791,9.219-0.6,9.606C480.225,873.624,480.835,864.019,474.644,863.633z"
			/>
		<path fill="#30021D" d="M974.68,739.173c6.181,0.386,6.791-9.219,0.6-9.606C969.099,729.181,968.489,738.787,974.68,739.173z"/>
		<path fill="#30021D" d="M959.243,751.067c6.181,0.386,6.791-9.219,0.6-9.606C953.662,741.076,953.052,750.681,959.243,751.067z"/>
		<path fill="#30021D" d="M976.226,758.556c6.181,0.386,6.791-9.219,0.6-9.606C970.645,748.564,970.035,758.17,976.226,758.556z"/>
		<path fill="#30021D" d="M422.457,713.889c6.181,0.386,6.791-9.219,0.6-9.606C416.876,703.897,416.266,713.502,422.457,713.889z"/>
	</g>
	<g>
		<path fill="#30021D" d="M476.191,418.577c0.037-0.004,0.074-0.008,0.112-0.012c2.659-0.875,3.975-2.225,3.956-4.012
			c-0.035-0.658-0.385-1.248-1.045-1.767c-0.662-0.52-3.095-1.654-7.285-3.433c-3.509-1.525-6.071-2.868-7.691-4.013
			c-2.24-1.602-4.32-3.875-6.241-6.802c-2.487-3.845-3.819-7.844-4.01-12.02c-0.276-6.041,2.203-11.694,7.393-17.222
			c5.747-6.124,12.752-9.974,21.048-11.517c4.803-0.893,9.184-0.725,13.161,0.567c2.478,0.854,5.204,2.804,8.194,5.88
			c1.263,1.381,1.975,2.776,2.136,4.184c0.174,1.679-0.575,3.928-2.255,6.719c0.039,0.027,0.077,0.053,0.116,0.08
			c-2.157,3.5-4.522,5.466-7.087,5.927c-0.881,0.158-2.099,0.208-3.657,0.14c-2.378-0.127-3.839-1.765-4.383-4.896
			c-0.219-1.24-1.314-1.685-3.29-1.347c-1.025,0.174-1.928,0.561-2.707,1.156c-0.735,1.457-1.066,2.843-0.995,4.164
			c0.121,2.247,1.397,3.95,3.832,5.104c8.974,4.196,14.298,6.806,15.922,7.889c5.8,3.828,9.061,8.367,9.758,13.608
			c0.152,1.279,0.37,2.993,0.653,5.142c0.689,8.732-4.636,16.56-16.101,22.774c-4.308,2.327-8.455,3.655-12.429,4.032
			c-0.599,0.057-1.43,0.067-2.485,0.031c-0.077-0.026-0.154-0.052-0.23-0.078c-14.511-0.776-22.518-5.171-23.972-12.395
			c-0.378-1.652-0.637-2.813-0.78-3.481c-0.142-0.668-0.209-0.872-0.197-0.616c-0.08-1.734,0.451-3.279,1.588-4.652
			c1.139-1.372,2.454-2.121,3.951-2.243c0.674-0.055,2.689,0.545,6.053,1.773c3.365,1.229,5.684,1.771,6.956,1.642
			c0.523-0.053,1.154-0.183,1.895-0.394C476.113,418.52,476.152,418.548,476.191,418.577z"/>
		<path fill="#30021D" d="M580.979,347.796c0.033-0.046,0.067-0.093,0.1-0.139c0.561,3.341,1.015,7.122,1.352,11.342
			c1.334,16.666-0.09,32.789-4.375,48.04c-1.115,3.987-3.053,7.788-5.823,11.378c-2.769,3.591-5.757,6.154-8.952,7.704
			c-3.011,1.012-5.965,1.784-8.86,2.32c-8.241,1.525-15.285,0.894-21.094-1.755c-5.573-2.48-9.63-6.64-12.17-12.438
			c-1.928-4.381-3.145-10.664-3.666-18.871c-0.781-12.311-0.147-22.82,1.869-31.636c0.637-2.72,2.216-5.383,4.735-8.019
			c2.516-2.635,5.103-4.44,7.764-5.393c2.304-0.793,4.643-0.809,7.019-0.03c2.377,0.777,4.187,2.116,5.43,4.016
			c0.338,1.632,0.574,3.399,0.709,5.298c0.164,2.32-0.135,7.45-0.914,15.342c-0.78,7.891-1.101,12.901-0.947,15.074
			c0.147,2.103,0.423,3.929,0.832,5.479c0.524,1.099,1.821,2.035,3.892,2.809c2.447-0.233,4.154-0.887,5.123-1.959
			c1.767-2.393,2.75-5.28,2.952-8.643c-0.432-4.877-0.777-11.106-1.036-18.699c0.28-6.281,0.475-10.168,0.589-11.646
			c0.282-4.199,0.742-7.476,1.381-9.826c2.3-4.83,5.106-7.698,8.434-8.564c3.11-0.802,6.054-0.427,8.838,1.153
			C576.941,341.715,579.215,344.267,580.979,347.796z"/>
		<path fill="#30021D" d="M612.662,392.801c0.037-0.008,0.074-0.017,0.11-0.025c2.604-1.277,3.854-2.937,3.752-4.974
			c-0.064-0.748-0.441-1.386-1.122-1.913c-0.684-0.526-3.157-1.591-7.407-3.155c-3.559-1.348-6.166-2.562-7.828-3.665
			c-2.298-1.547-4.469-3.869-6.512-6.953c-2.647-4.057-4.156-8.443-4.545-13.203c-0.56-6.879,1.627-13.742,6.526-20.719
			c5.426-7.722,12.228-12.871,20.452-15.267c4.761-1.386,9.157-1.458,13.202-0.188c2.523,0.845,5.346,2.942,8.483,6.325
			c1.328,1.522,2.106,3.082,2.33,4.671c0.25,1.897-0.403,4.466-1.965,7.691c0.04,0.029,0.08,0.058,0.12,0.086
			c-2.009,4.047-4.292,6.384-6.839,7.043c-0.874,0.226-2.092,0.35-3.654,0.368c-2.385,0.002-3.919-1.758-4.605-5.283
			c-0.275-1.394-1.39-1.828-3.35-1.296c-1.017,0.275-1.901,0.788-2.652,1.528c-0.667,1.72-0.935,3.326-0.803,4.825
			c0.223,2.551,1.574,4.379,4.059,5.503c9.155,4.088,14.608,6.834,16.282,7.978c5.982,4.078,9.455,9.142,10.386,15.05
			c0.209,1.443,0.504,3.378,0.882,5.803c1.078,9.891-3.926,18.807-15.091,26.634c-4.194,2.941-8.267,4.802-12.203,5.61
			c-0.594,0.122-1.419,0.214-2.471,0.279c-0.077-0.022-0.155-0.044-0.232-0.066c-14.464,0.615-22.574-3.08-24.361-11.178
			c-0.452-1.838-0.764-3.13-0.937-3.874c-0.174-0.744-0.248-0.968-0.225-0.677c-0.161-1.976,0.29-3.828,1.351-5.567
			c1.062-1.737,2.33-2.783,3.808-3.126c0.666-0.154,2.69,0.254,6.088,1.24c3.398,0.989,5.727,1.351,6.986,1.063
			c0.516-0.118,1.139-0.335,1.866-0.654C612.582,392.744,612.622,392.773,612.662,392.801z"/>
		<path fill="#30021D" d="M652.452,321.69c-0.035,0.009-0.071,0.019-0.106,0.028c2.858-4.251,6.706-7.043,11.556-8.301
			c4.055-1.051,7.081-1.209,9.085-0.495c2.33,1.766,3.82,5.097,4.46,9.966c-0.046,3.979,0.149,9.234,0.584,15.762
			c1.226,3.284,2.717,4.741,4.474,4.367c0.661-0.141,1.649-0.714,2.965-1.722c0.763-0.565,1.221-2.327,1.366-5.287
			c-0.863-4.047-1.737-9.673-2.622-16.88c-0.132-4.2,1.899-8.344,6.083-12.42c0.813-0.758,2.914-1.612,6.311-2.529
			c2.533-0.64,4.249-0.926,5.147-0.87c3.37,0.273,5.848,2.59,7.427,6.927c0.514,1.311,1.065,2.615,1.651,3.913
			c0.944,2.56,1.601,5.222,1.974,7.975c1.666,11.32,2.809,19.838,3.423,25.539c1.297,12.056,0.848,25.629-1.406,40.564
			c-0.714,4.623-3.696,7.869-8.935,9.823c-3.344,1.286-6.137,1.327-8.378,0.125c-3.035-1.567-5.008-4.605-5.925-9.147
			c-0.279-1.247-0.418-3.529-0.416-6.852c-0.002-3.32-0.106-5.613-0.309-6.875c-0.656-1.909-1.967-2.687-3.926-2.325
			c-1.883,0.348-3.483,1.418-4.802,3.195c-1.319,1.78-1.821,3.844-1.508,6.197c0.527,1.512,1.327,4.216,2.398,8.129
			c0.64,2.623,0.738,4.697,0.287,6.221c-0.676,2.287-1.972,4.069-3.883,5.359c-1.274,0.861-3.695,1.595-7.262,2.229
			c-3.418,0.608-6.362-0.122-8.827-2.19c-2.055-1.749-3.945-4.896-5.658-9.443c-1.989-5.043-3.364-10.776-4.124-17.232
			c-1.111-9.295-1.981-17.26-2.612-23.901C649.545,336.798,650.053,326.859,652.452,321.69z"/>
		<path fill="#30021D" d="M750.895,310.791c0.395,3.446,0.948,7.638,1.665,12.579c0.716,4.944,1.156,8.131,1.32,9.559
			c1.98,16.635,2.687,31.599,2.087,44.807c-0.378,8.561-3.255,13.799-8.614,15.851c-1.63,0.286-2.745,0.455-3.344,0.501
			c-7.569,0.588-12.247-2.78-14.049-10.309c-3.153-12.944-5.253-24.661-6.331-35.241c-1.142-11.151-1.444-21.143-0.923-30.005
			c0.688-2.913,1.373-5.831,2.057-8.753c3.123-6.803,8.171-10.834,15.189-11.85c1.607-0.232,3.051-0.261,4.335-0.095
			c2.171,0.813,3.752,2.614,4.739,5.388C749.648,305.743,750.271,308.266,750.895,310.791z"/>
	</g>
	<g>
		<path fill="#ED6E2E" d="M559.628,458.976c0.037-0.005,0.074-0.011,0.111-0.016c0.203,0.999,0.289,2.324,0.258,3.976
			c-0.138,3.453-1.076,6.193-2.815,8.202c-0.68,0.772-3.682,1.983-9.006,3.522c-5.326,1.532-8.069,2.381-8.223,2.668
			c-0.166,0.761,0.518,7.7,2.077,20.924c0.31,2.672,0.436,5.365,0.374,8.068c-0.14,6.155-1.152,11.294-3.046,15.37
			c-2.367,5.116-5.734,7.669-10.089,7.665c-7.059,0.005-11.926-1.93-14.59-5.585c-2.02-2.746-2.971-7.094-2.861-13.049
			c-0.016,0.524,0.239-2.913,0.765-10.323c0.315-4.197,0.63-8.397,0.944-12.599c0.416-3.945,1.005-7.376,1.76-10.303
			c-0.449,0.157-1.119,0.258-2.01,0.305c-2.524,0.13-5.035-0.12-7.533-0.745c-3.381-0.853-5.669-2.221-6.863-4.059
			c-1.687-2.6-2.486-5.053-2.404-7.365c0.137-3.859,2.683-6.896,7.625-9.295c6.366-3.122,13.965-5.127,22.813-6.077
			c4.645-0.498,9.5-0.685,14.571-0.549c2.414,0.487,6.074,1.24,10.986,2.223C556.564,453.307,558.951,455.645,559.628,458.976z"/>
		<path fill="#ED6E2E" d="M597.008,453.171c-0.028,2.929,0.011,6.484,0.12,10.671c0.108,4.189,0.156,6.891,0.145,8.105
			c-0.06,14.132-1.183,26.944-3.393,38.321c-1.421,7.37-4.921,12.076-10.498,14.071c-1.655,0.318-2.783,0.501-3.383,0.563
			c-7.59,0.767-11.822-2.106-12.686-8.453c-1.544-10.931-2.19-20.827-1.962-29.765c0.234-9.421,1.156-17.864,2.759-25.379
			c1.037-2.479,2.073-4.967,3.108-7.464c3.924-5.855,9.42-9.471,16.5-10.83c1.622-0.311,3.06-0.447,4.311-0.408
			c2.055,0.522,3.405,1.928,4.045,4.225C596.385,448.941,596.696,451.055,597.008,453.171z"/>
		<path fill="#ED6E2E" d="M686.005,496.847c0.038,4.035-0.72,7.275-2.276,9.711c-1.261,1.937-2.902,3.293-4.925,4.078
			c-1.049,0.436-2.585,1.008-4.61,1.718c-1.573,0.58-2.587,0.895-3.038,0.951c-3.231,0.402-5.982-0.721-8.246-3.349
			c-2.266-2.628-3.404-6.084-3.422-10.404c-0.008-1.665,0.39-5.585,1.186-11.779c0.652-4.805,0.67-8.534,0.064-11.167
			c-0.369,1.199-1.508,4.844-3.428,10.892c-2.514,7.654-4.787,12.385-6.805,14.256c-1.122,1.065-2.469,1.708-4.042,1.935
			c-1.199,0.172-2.437-0.06-3.709-0.696c-4.047-3.59-7.184-11.168-9.403-22.696c-0.376,1.913-0.564,3.827-0.568,5.748
			c-0.002,1.109,0.29,4.57,0.881,10.395c0.443,4.148,0.439,7.519-0.014,10.097c-0.604,3.341-2.221,6.451-4.854,9.306
			c-2.632,1.827-5.15,2.886-7.553,3.199c-3.306,0.431-6.341-0.603-9.1-3.068c-3.047-4.669-4.82-7.772-5.33-9.36
			c-1.1-3.091-1.623-7.87-1.574-14.349c0.045-5.977,0.649-16.633,1.798-32.039c0.408-5.331,2.087-10.13,5.03-14.449
			c2.942-4.315,6.885-7.699,11.832-10.143c9.809-2.395,17.242,4.436,22.387,20.919c0.367-3.288,1.51-7.772,3.423-13.492
			c2.794-8.374,5.951-13.844,9.483-16.343c3.462-1.798,6.408-2.961,8.841-3.474c4.053-0.856,7.158-0.194,9.32,1.991
			c2.823,2.131,4.811,5.232,5.958,9.281c0.763,2.726,1.288,7.212,1.568,13.453c0.126,5.726,0.253,11.452,0.381,17.178
			c0.414,12.673,0.663,23.204,0.741,31.583C686.004,496.77,686.005,496.808,686.005,496.847z"/>
		<path fill="#ED6E2E" d="M742.777,448.184c0.319,1.195,0.456,2.453,0.409,3.764c0.087,4.33-1.44,8.095-4.586,11.304
			c-2.851,3.021-5.962,4.478-9.322,4.411c-0.604-0.182-1.722-0.108-3.358,0.225c0.165,0.949-0.049,3.552-0.653,7.795
			c0.032,1.928,0.84,3.295,2.427,4.116c3.047-1.168,5.545-1.385,7.509-0.652c3.086,1.049,4.81,3.132,5.169,6.203
			c0.441,3.476-0.424,7.099-2.605,10.85c-2.179,3.753-5.238,6.96-9.175,9.648c-3.495,2.417-7.649,3.797-12.456,4.195
			c-4.209,0.349-8.016-0.138-11.415-1.462c-1.437-0.567-3.607-2.562-6.497-5.933c-3.142-4.995-4.832-15.998-5.089-33.085
			c-0.18-9.83,0.481-21.185,1.969-34.148c0.878-7.521,2.816-12.673,5.815-15.431c6.151-1.795,12.301-3.541,18.447-5.221
			c3.159-1.235,6.177-2.072,9.051-2.503c5.752-0.864,9.173,0.274,10.268,3.312c0.468,1.245,0.716,2.683,0.748,4.31
			c0.069,3.502-1.059,6.492-3.386,8.973c-2.326,2.482-5.598,3.978-9.821,4.548c-1.037,0.14-1.849,0.252-2.442,0.334
			c-0.5,1.267-0.765,3.216-0.794,5.848c-0.094,3.36-0.175,5.281-0.239,5.768c0.239,1.083,1.029,1.699,2.372,1.85
			c2.123-2.117,4.811-3.38,8.079-3.757C736.987,443.01,740.175,444.586,742.777,448.184z"/>
		<path fill="#ED6E2E" d="M778.245,486.436c1.186,2.451,1.818,5.156,1.895,8.101c0.067,2.611-0.312,5.252-1.143,7.92
			c-2.668,4.141-7.275,6.105-13.814,6.105c-1.43,0.002-2.86-0.077-4.29-0.227c-5.332-3.009-8.356-7.504-9.087-13.645
			c0.049-1.153-0.061-2.835-0.333-5.044c1.451-5.81,5.222-9.639,11.313-11.323c4.498,0.448,7.425,0.961,8.783,1.447
			C774.739,480.993,776.963,483.23,778.245,486.436z M780.936,410.554c0.036-0.043,0.072-0.087,0.108-0.13
			c1.47,2.556,2.254,5.538,2.346,8.919c0.07,2.621-0.461,6.869-1.602,12.726c-1.141,5.856-1.639,10.249-1.487,13.197
			c-1.351,10.733-2.034,18.974-2.031,24.777c-0.6,2.781-3.094,4.492-7.485,5.224c-1.336,0.272-2.605,0.421-3.799,0.449
			c-3.959,0.093-7.014-0.994-9.156-3.297c-1.834-1.903-2.972-5.966-3.405-12.21c0.169-2.485,0.221-5.171,0.157-8.057
			c-0.069-3.132-0.374-7.653-0.911-13.552c-0.538-5.898-0.836-10.282-0.899-13.165c-0.122-5.598,0.358-10.679,1.442-15.256
			c0.077,0.116,0.153,0.232,0.23,0.348c0.702-1.642,1.23-2.733,1.589-3.267c0.781-1.403,1.736-2.353,2.871-2.84
			c1.132-0.485,2.399-0.796,3.8-0.924c1.327-0.119,4.503,0.123,9.544,0.859C776.412,405.659,779.31,407.755,780.936,410.554z"/>
	</g>
	<path fill="#30021D" d="M739.01,604.885c-1.07-9.36-4.558-17.994-8.229-26.265c-1.572-3.542-3.218-7.167-3.643-11.18
		s0.681-8.571,3.5-10.577c2.645-1.882,6.116-1.014,8.591,1.198c2.475,2.212,4.146,5.535,5.633,8.85
		c5.136,11.452,8.914,24.42,7.908,37.482c-0.504,6.544-4.446,23.646-10.985,24.99c-3.509,0.721-4.396-4.131-4.115-7.428
		C738.181,615.964,739.727,611.158,739.01,604.885z"/>
	<circle fill="#30021D" cx="724.408" cy="542.392" r="7.052"/>
	<path fill="#30021D" d="M637.164,542.413c2.408,0.205,5.605,1.473,5.071,3.83c-0.375,1.654-2.39,2.236-4.063,2.513
		c-18.736,3.101-37.484,6.13-56.243,9.088c-3.842,0.606-14.001-0.316-10.21-6.756c2.561-4.35,14.298-5.212,18.61-6.066
		C605.718,541.975,621.533,541.083,637.164,542.413z"/>
	<circle fill="#ED6E2E" cx="760.463" cy="294.524" r="5.746"/>
	<circle fill="#ED6E2E" cx="576.25" cy="323.822" r="6.664"/>
	<circle fill="#ED6E2E" cx="471.383" cy="452.84" r="3.174"/>
	<circle fill="#30021D" cx="555.536" cy="519.54" r="2.386"/>
	<circle fill="#30021D" cx="599.235" cy="428.885" r="6.002"/>
	<circle fill="#30021D" cx="688.453" cy="413.027" r="2.446"/>
	<circle fill="#30021D" cx="796.676" cy="471.821" r="3.022"/>
	<circle fill="#30021D" cx="771.954" cy="389.97" r="4.52"/>
	<path fill="#F7A524" d="M452.075,993.362l-6.822-2.981c-1.088-0.476-2.017-1.253-2.677-2.241l-4.136-6.191
		c-2.727-4.082-8.888-3.535-10.854,0.963l-2.981,6.822c-0.476,1.088-1.253,2.017-2.241,2.677l-6.191,4.136
		c-4.082,2.727-3.535,8.888,0.963,10.854l6.822,2.981c1.088,0.476,2.017,1.253,2.677,2.241l4.136,6.191
		c2.727,4.082,8.888,3.535,10.854-0.963l2.981-6.822c0.476-1.088,1.253-2.017,2.241-2.677l6.19-4.136
		C457.119,1001.489,456.573,995.328,452.075,993.362z"/>
	<path fill="#F7A524" d="M890.924,794.282l-5.81-4.655c-0.927-0.743-1.621-1.735-2.001-2.861l-2.381-7.054
		c-1.57-4.651-7.661-5.728-10.73-1.897l-4.655,5.81c-0.743,0.927-1.735,1.621-2.861,2.001l-7.054,2.381
		c-4.651,1.57-5.728,7.661-1.897,10.73l5.81,4.655c0.927,0.743,1.621,1.735,2.001,2.861l2.381,7.054
		c1.57,4.651,7.661,5.728,10.73,1.897l4.655-5.81c0.743-0.927,1.735-1.621,2.861-2.001l7.054-2.381
		C893.678,803.443,894.755,797.352,890.924,794.282z"/>
</g>
</svg>
